<mxfile host="app.diagrams.net" agent="Mozilla/5.0 (Windows NT 10.0; Win64; x64) AppleWebKit/537.36 (KHTML, like Gecko) Chrome/128.0.0.0 Safari/537.36" version="24.7.14">
  <diagram id="7gcUSTIZ7YSJ5vT40chW" name="Page-1">
    <mxGraphModel dx="2426" dy="657" grid="1" gridSize="10" guides="1" tooltips="1" connect="1" arrows="1" fold="1" page="1" pageScale="1" pageWidth="1169" pageHeight="827" math="0" shadow="0">
      <root>
        <mxCell id="0" />
        <mxCell id="1" parent="0" />
        <mxCell id="krXXUxlrRhLwoEf3vAPq-50" style="edgeStyle=orthogonalEdgeStyle;rounded=0;orthogonalLoop=1;jettySize=auto;html=1;" edge="1" parent="1" source="SZY12_XKgGBlkoAp8IEY-8" target="krXXUxlrRhLwoEf3vAPq-6">
          <mxGeometry relative="1" as="geometry" />
        </mxCell>
        <mxCell id="krXXUxlrRhLwoEf3vAPq-56" value="" style="edgeStyle=orthogonalEdgeStyle;rounded=0;orthogonalLoop=1;jettySize=auto;html=1;" edge="1" parent="1" source="SZY12_XKgGBlkoAp8IEY-8" target="krXXUxlrRhLwoEf3vAPq-54">
          <mxGeometry relative="1" as="geometry" />
        </mxCell>
        <mxCell id="SZY12_XKgGBlkoAp8IEY-8" value="" style="aspect=fixed;html=1;perimeter=none;align=center;shadow=0;dashed=0;image;fontSize=12;image=data:image/png,iVBORw0KGgoAAAANSUhEUgAAAOEAAADhCAYAAAA+s9J6AAAb5klEQVR4nO3dfVRU550H8O8jMALy4iggiMXYaVJNYxx69ghJNLttJxVjiVhac5qMG20qJMXUJlGztRiS6DErbpImBzcFk0JW1tMabKzGYKRpNoWscE42jjVxSOJbPAgjiGRgEBjEZ//AOxlg5s773Jf5fc6553i8M3ceZuY7997nd5/nMs45lKjtwjCflRXDpG4HIYGaJHUD/HXi40GsWt7OT5oGlfkrQsgNig3hpEmArZdjy/puPPtUF+++PEJhJIqk2BACQFQ0kDiV4bNPhvFwoQX/Xf0VBZEojqJDKBDC+NbefjywrJ0fa7xKYSSKoYoQCuLiGaKigR2lPdhUcomf+dxOYSSyp6oQChKnMrSdH8GvHurErheucJttmMJIZEuVIQRGD1GnpU3Ch38bhHFZJw4f6KMgEllSbQgFwvli9a5ePLyyg0oaRHZUH0JBXDzDQP9oSWPzrzuppEFkI2JCCHy9Vzz/xTVHScNup84bIq2ICqFgbEmjC1TSIFKKyBAK4uIZ4uIZdpT2YN1qC5U0iCQiOoSCxKkMV7qu41cPdeLF7d10vkjCikJ4g1DS+OjDITxcaKGSBgkbCuE4ziWNVcvbecuHdL5IQotC6EZcPMPINeD5zaOXwLVdoKtuSGhQCEUIe8W28yNYt4ougSOhQSH0ghDG948MwLisE/UH6XyRBA+F0Adx8QyJUxmqXurFo0YLXQJHgoJC6IeEJAZrz3X826OXsX3LZSppkIBQCP0klDQ++dhOo/pJQCiEAaJR/SRQFMIgGT+qn0oaxFsUwiATShprll+iC8OJVyiEIRAVDSSnMHzVMyJ1U4gCUAgJkRiFMMyoFzX4Tp3q5kePfqnY95VCGGY1r9jowvAgsdmG+XPPtfB77vkbvvpqSOrm+I1CGGYJU+nC8GDYt+9znpt7CIcOdWDmzBipmxOQaKkbEInGXxi+tDCOP/jzRCQk0F2mPDl2rJ1v3WpCe/sQUlNHw2ezKbsDjPaEEhLC2HBoAKtX0IXhYtra+vgjj/wPX7u2GVbrMLRa9ew/KIQyIMx1I1wYTnPdfM1ut/OXXz7O8/IacPKkFampMdBo1PW1Vc/PiQoIF4Y/ubYLC++ezIvXazE9JSpiD1GPHv2SP/usCXY7dxx6qpG6flJUQDhEFS4M31drjbi94qlT3fynPz3KN236GBrNJCQkREndpJCiEMqUEMZ9b0ROSUMoOaxc+QHa2wdUdd4nhkIoc5Ey180bb5ziubmH8O67FlWe94mJjJ8ahVNzSUMoOXR12VV93icmcn5uVMC5pLEqX9kljfElB7Wf94mhECpQXDxDQpIy57qJhJKDr+hwVMGEksaW9d2KKGkcPfol/+1vjwNAxB56uhLZP0EqML6kIcdRGs4lh4SEqIg+9HSFQqgSznPdrFouj7lubLZh/pvf/G/ElRx8RSFUGaGkIfVcN0LJ4e9/76LzPg/op0mFpCxpHDvWzjdv/j/YbCN03ucl+nlSMeeSRqin729r6+M///nf+Nq1zQBA530+oBBGgFBO3+9ccvjssz7a+/lBsSG8fh24Zpe6FcoS7On7//znL/jChYdRW/slnfcFQLHvWu6ieNxyWzT6vuIYuSZ1a5QjGNP3nzrVze+99x3+3HOfQKuNpkPPACk2hNNTolj5rhnsN9u1iIoGBqTvkVcUf0oaziUHtY1ul5JiQyjIuSue7fnLTLbyoQTYemmv6CtvSxpUcggd1byTK43J7LU303HbdzW40nldtmHk16VuwUTOJY01yy9NWL9v3+d8585WCl+IqOodnZ4SxTZvTWGvvJGGaamTYOulQ1RfREUDU5ImlhKjoxni4lT1VZEVVb6zuls0rKImnRU9ngRbL6fzRSJrqgyhYOl9iexP76binvw46kUlsqXqEAKARqNhxb+axir2pOGmm6mkQeRH9SEUzMqKYdt/l8a2vjwdcVMYHaIS2YiYEArm62PZ6/sy2JqSJNorElmIuBAKlhUkstrDafinuybLuqRB1C9iQwgACQkx7InN0x0ljT75DUonESCiQygQShpPbdNi4CqVNEh4UQid3LE4nu09nIoVD0yh80USNhTCcTQaDXtwzVT2+v50KmmQsKAQujE9JYpt/10ae2objdIgoUUh9OCOxV+P0qC9IgkFCqGXVhqT2ev7R0dpUBhJMFEIfSCM0nhhdyqN0iBBQyH0g/MoDSppkEBRCAOw9L5EtvcwjdIggaEQBohGaZBAUQiDZMIoDRsdohLv0HRZQXZjlAb21Vr5dRnOJ0Pkh0IYIiuNybK9TyCRFzocJURiFMIw66e5UYNuYEDZx/0UwjD7Y0MGvn1bjGx7UZmCvhE22whsthE899x8rFx5i2IP/+mcMMymp0Sxsh2pOGka5P/5H1/BcnEECS7m+iTu2e3XYbWOYO3aOXj00e9Ao9Eo+g1U0O+euszXx7JXa+mqG191dQ1j/vxkHDlyD9avz2ZKDyBAe0LJLb0vkS3+fix/o7IP79RdRfK0SYiiT2UCm20ECQlR2L07F3fcMVPxwXNGe0IZSEiIYSVPTmOVf5qBWTdF0Vw3Tuz26+jpuYZ1627B++/nM7UFEKAQhp3Y/QBnZcWw8l0zaK4bjIavq2sYd9+diqamH+Ghh25VXfgEFMIwq3nFhgeWtfOWD90n7I7F8ayuIZNF6lw3PT3XMHNmHPbt+2c8//ydLCEhRrUBBCiEYSfc9ej5zT3Y/OtOt/cDBABhrptIGUgslBzKy7+LN9/8Ibv11umqDp+AQigB4X6A57+4huL7L6HylSvcZnMdRmEg8daXpyNZq86BxMKhp9E4Gx9+eC9++MPZERE+AYVQQsL94xsODWD1ik7UH+xzmzChpPGL9eopaQjhU1vJwVcUQhmIi2eIi2eoeqkXjxot/KRp0G3ClhUkspq30vC9vDhFT99vs40gOTkGu3fn4ve//xc2a1ZixIVPQCGUkYQkBmvPdWxZ343tWy7z7ssjLsOo5JKGUHLYuPFWvPPOvaosOfiKQigzwvniJx/b8XChBftqrV6VNEauyXtuVOHQc8mSdDQ1/UjR13oGG4VQpoQw7nvDu5LG3sMzZVvScC45PP10jupLDr6iEMpcXDxDVPRoSWNTySWvShrfvi1GFueLNtsIenquRVzJwVcUQoVInMrQdn4Exfdfwq4XxEsaZTtS2b+/miJZScO55GAyrWCRVnLwFYVQQYSSxvtHRksahw94LmkUPZ4EW294ShquSg4hf1EVoBAqkFDSeO3lXjy8skO0pLH0vkS259BoSSOU54s9Pdeo5OAnCqGCJSQxDPRzbFnfjWef6vJY0qjYkxb0koZw3rd583eo5OAnCqHCCb2on30yjIcLLV6P0gi0pCEceubnZ1DJIUAUQpUQwvjW3n48sKydH2sMXUmDSg7BRSFUGaGksaN0tKRx5nO7V6M0vClpROooh1CjEKqUUNJ4cm0XXtze7XGUhqOk4eZotr09ckc5hBrjXL6XOqlRwT9f5IlTw/sdHrkG2O0ca0qSsKxAvNfy8IE+Pv4xx4618298IxHU4xkaFMIwkyKEgoGrHHHxDJuenYb5+lgKlEzQ4WgEiYtnGLkGjyUNEl4UwgjjXNL41/wO0VH9JDwohBHKeVR/0f1doqP6SWhRCCOcUNKoeqkX61ZbREsaJDQohATA6CVwV7qu45H7O6VuSsShEBKHqOivp2Qk4UMhJERiFEJCJEYhJERiFEJCJEYhJERiFEJCJEYhJERiFEJCJEYhJERiFEJCJEYhJERiFEJCJEYhJERiFEJCJEYhJERiFEJCJEYhJERiFEJCJEYhJERiFEJCJEYhJERiFMIw6+8N3S2riTJRCMPsjw0Z+PZtMSG9fzxRFgphmE1PiWJlO1LZ1penI24Kg62XJryOdBRCiczXx7LX92WwX6xPgo0OUSMahVBiywoS2Z5Dabjr+7F0iBqhKIQykJAQw0qenMZe2J2KWTdFoc/NLauJOlEIZUR3i4aV75rBntqmBTB6Z12ifhRCGbpjcTzb85eZbMUDU3Cl8zodoqochVDGHlwzlf3XoQzc9l0NnS+qGIVQ5qanRLHNW1OopKFiFEKFcC5pDFzldL6oIhRChVlWkMhq3krD9/Li6BBVJSiECiSUNCr2pDlKGhRG5aIQKtisrBhHSSMqmkoaSkUhVAHnkgbtFZWHQqgiD66Zyl7fn04lDYWhEKqMUNJ4YXcqlTQUgkKoUrpbNOz1fRms6HEqacgdhVDllt73dUmDLoGTJwphBBBKGpV/mkGjNGSIQhhBhJLGb7ZrMXKNShpyQSGMQDl3xbO9h6mkIRcUwghGJQ15YJzTIQkBTpoG+e+29+DCFyNoOD6LSd2eSEIhJGPsq7XylcZkCmEYUQgJkRidExIiMQohIRKjEBIiMQohIRKjEBIiMQohIRKjEBIiMQohIRKjEBIiMQohIRKjEBIisZCF0G6300WphHhhEmOMM8bGBKapqYkzxvjOnTv9DtLu3bvBGONHjhxxuY1nnnmGM8Z4S0sLB4CLFy/yVatWcaE9jDG+YsUKCjJRvehQbTgmJgYAMDw87HL9TTfdBIPBgOTkZADArFmzAAAlJSWYPXs2Tp8+jRMnToSqeYTIhlch7O3t5WazGcPDw4iJiUF2djY0Go1jzFlrayu/fPkyACAlJQVz585lGo0GwGgY7XY7P378OAAgJyeHAUBeXh5yc3PxzW9+EydOnOAAUFRUhIqKCpdj2ex2OzebzRgcHMS8efOQlJTEhLadO3cO8+bNAwAMDg4iNjYWZrMZCxYsYBaLhZ8+fRqJiYlYsGABjZMjssQBcM45hKW5uZkD4OXl5fzGeEM+fmlra+Occ5SWlk5YxzlHdXU1B8BzcnLGrKuoqOCcc2zYsIED4CaTiZtMJg6Al5aWjmmHsDQ2Nk54DaFtQluNRiMHwKurq7nZbOYAuF6vd/kcWmiR0+LomMnOzubf+ta3eHZ2Nl+5cuWYlJpMJpjNZrS1taGiogIAsHfvXgDAtm3bRpPMObNarTCbzWOe29HRgfLyctTV1QEA3n33XQDAlClTvP6VWLx4MQCgsbERbW1tMBgM2LRpEy5evMhjY2MBALW1tdBqtcjOznY8r6+vz/GcrKwsbNq0yevXJCRcHCFMSUnBnDlzkJKSgoyMjDEPWrBgAZs7dy7LzMxkixYtcrmhqqoq3t7ejrlz5zIAsNvtAIDKykps3LiRFRYWMgAYGBjwqYG9vaPzuBuNRixatIhlZmayBx98EABw7tw5x+NKSkpw5coV5nzI+bOf/czxnLvvvhs32kWdPURWHOeEDQ0Nji9vS0sLz83NdTyouLiYV1VVudyAyWTC6tWrUVxcDADQ6XT89OnTjnNCdx0zwTZ79uwJ/zc4OOjy/4S2ESIHLuuEQnDi4+NhsVh4VVUVjEYjzGaz47BSsGDBAnb8+HE2NDQEg8GAM2fO4OLFiz7tbSZPngwAOH/+vNvH2Gw2XzYJABAOVf19PiHh4LF3ND4+HsDol9hqtaK5uXnM+i1btnC9Xo8ZM2agr68PAJCYmOhTI24cwvLa2lpYrVaelZUFq9WKL774As3NzUyn0/EDBw6gpqaGp6enO85Db7/99jGHpOO9/fbbiIqK4gBw4MABaLVaR68qIXIhGsKrV68iKSmJlZaW8m3btuHAgQMoKSkZ85i3337bEQoAKC0tRVJSEvP23Es4ZDSbzXjsscdw6NAhxzqDwQAA+OCDD1BYWIg1a9Y41tXX1yMpKYkNDg5yAOjv75+w7fb2djz77LNjnkOI3Hg95aHdbufOtcHxent7eaj3Mna7nQ8ODk7Ym41vW2trK583bx5KS0uxdetW2vMRWfP6ihmxAAIIy2GeRqNhrjpV3LXNVccMIXKj6lEUN998s9RNIMQjmoGbEImpek9IiBKEbBQFka/e3l7e3t4Oq9WK2NhYTJ48GTNnzkRsbKzHc38SfBTCCNHS0sIrKipw+PBh9PT0uH1cTk4Oz8vLw+bNmymQYULnhBFgxYoV/MCBAz49Z2hoiEIYJtGzZ88OewovXLgAs9nsuNibhE5ubi5vaWnx6Tl6vZ4CGEbRFy5ckOSFh4aGJHndSFJVVeVzAIHRWQ9I+FDvqIoJI1t8deeddwa5JUQMhVClhClDPNHr9cjJyRnzf6mpqSFpE3GNekdVSpjTx50NGzZg586dE877Ll68yH0dBUMCQyFUqa6uLtH1rgIIAJmZmdQhE2bROp3O6wdfuXJFtMbk7bbOnDnjGMhLQqOzs9PtuvGHn0Ra0adPn/b6l09smou0tDT4si0iHTrclJegdcyEay4ZQtSGekcJkZjkHTPCDNmXLl0CMDpXaGJiIqZMmYL58+cjNTU1LFdvNDU18UWLFgX8Oi0tLXz8DOXj9fb28r6+PrS1taGnpwfDw8Ow2+3QaDTQarWIiYnBrFmzAuokcZ7kary4uDh/NzuGcCH4+fPnJ0wvMmPGDMyZMydsHT1NTU184cKFQfmuWCwWfunSJXR0dKC/vx/d3d3IyMjAkiVLvN6+q/dGo9Hg5ptvnnilmC8zBRcVFU2YCVtYtFot93Y7HR0dvKysjKelpbndnvNiNBp5Y2OjV9uvqKhwuY2CgoIJz7darbyystLxGKvV6njMwYMHXW5Hp9NN2M7Q0BCvrq52/D3C7OTCuubmZl5eXs4LCgq8+nvHt/vgwYOif7swQ3lWVpZj0Wq1Pr+WsJhMJrevZ7VaeXV1NdfpdF5vr6ioyOvPr66uzuf3XfhbnT+/+vp6l9upr6+fsJ2Ojg5eV1fnmMVdbBFmkHfVlsbGRr5hwwaP32uDwTDmOxL2EJaXl/v95TAYDGPeaF9COPp7I/445zfGXQjHb0eY7t/dl1isPcEKh6vbBASymM1ml68T6N+i0+lEAy4WQm8+P+d2uwthSUkJF0JTWVk54TYN3izOt2swmUy8pKTEr/dD+L6FNYT+/MGulo6ODrev5SmEYuFqbm72KoQdHR1c7IvvvOcKdkBc7VGC/Rqu3l9/9uLulrq6Orefn1gIrVYrdxeu8e+N2OMC2REIS0VFhV8Bdl5ycnLCG8JgfohpaWl+hXD8DWLGL87hEQuhp+1UV1c7ttPW1ha0v9v5yxjKEI5/T/Pz84P+N7g6LPQUQk/vu3O4xUIop8VsNvOw9I7u37/f5/FsYjo7O+HPDUxNJpPo+u7u7qBs58yZM45/h+I6zBdffDHo23Rn//793Hku2GBZunSp4z4j3vL0vp89ezaQJknivffeC0+J4ic/+YnHx+j1epSWlqKsrGzCBMOuhOIOS59++mlQtuM8nb9Go2F6vd7l4/R6PQwGAwoKCpCfn4+0tDSvtu88oXGoefPZCXQ6HbKysrx+fGVlpT9NcuvLL78M6vbC4R//+AdCfjgq3D/Q3aLT6fzuCHA+h/P2OWLtdz5EEjsc9bSMP+eprKzk1dXV3GQyjen8cbd4cyg1fjtDQ0NcWDh3fd9IYXHVU+xvOyorK112lplMJq96g305HPW0OH9+/h6O6vV6bjQa/erJdl7y8/N5UVGRx15kvV7vfQD9DaGnk2BPvZ1i3cauuov9CaGrjgJ/Quh8Lhjo4uk8z905lbCUlZUFHELhRq7uFm/KDmLfGWBij68/IXT1vvsSwrKyMt7c3Oz4AfP2M3BeDAYDr6urc/kjK3ZOnZaWFvoQijVgw4YNHj9EsTfTaDQGFMLKykq3r+9LCMvLyyd8gMFYAgl8MEIo9iuen5/v1TasVqtPAfIlhO5qdt6EUKvVivbSevMZAKM1UHdHct7+TSG/YubUqVNu1znfA9Gd+fPnu11nsVj8apPRaMTOnTuRnp4e0NUVBoMBNTU1IbsqRKfTjenkcSbchDWU3L02APz4xz/2ahtJSUksKyuLu5tGxdOQK1cKCgrw6quvBvT5WSwWr65+0Wq1bkcOVVZWoqioyOM2PN0PM+QdM2IfpDc364yKinK77vLlyz63p76+Hnv27GGBBrCurg4NDQ0slJdlpaSkuF1ntVpD9bJeSU9P9/qxwl2SXREbcuVKfX093nrrrYA/v2AI1s1mJb12tKOjw+MNRdva2tyua29v9/k18/LygvLh5efnB2MzipWQkOD1Y5OTk92u8/VoJlifn5xIGkJ/JyISSDl8Khy33aZxfxN5ukWfEkk+iiLSnDhxgh8/fhxnzpzxeOu2zz//PEytIlKiEIZJTU0Nd77TMCECGtQbBsXFxRRA4paiQyg26ZRc1NTUuJ2XhxBA4sNRnU4n2g3viRI6LmgPSDyRNIQ7duxAYWGhqnq6nHkzC7bRaMTtt9/ucl1lZaVonZWoQ8hDKHbFgdp5mgXbarUiKSnJ7Y9QY2Mjl2sIbTab148VKyXFx8cHozmKFvJzwmnTprld19fXF+qXl5TYpWUlJSWiAQSAgYGBoLcpWHwpsr/33ntu12VkZASjOYoW8hDOmTPH7bqPPvoo1C8vKbFLy7RabRhb4h+xGdXFguXMbreL7s3pNmxhCKG7Aa0AsGvXLtjtdo/nTUoldrmWEg7RV6xY4XZdbW0tmpqaPH52jz32mOj67Oxs3xumMiEPodjFu8J6i8Xi8cO02+38xIkTvKqqimdnZ/MjR47IPrxil7W9+eabbtdZLBb+zDPP8L/+9a+haJbXli9fLrp+8eLF2LVrF3c1TUVraytftWqVx/LMggULVNsx562Qd8wsWbJEdH1LSwsyMjKg1+v5woULHVM8DA4OYmBgABcuXICrOU5OnjyJvLy8kLQ5WObNm+d2XWdnJ3Jzc/kjjzyC6dOnw263w2QyoaGhAf7cXTcUbkyGLPpjt27dOqxbtw4AeE5ODoaGhjzOBSMoKysLuI1qEPIQajQaVlpayrdt2yb6OJPJ5PWHBwBHjx7Fxo0bA2xdaHk61GppaZFN4Nypq6vzep4ZX/+WJ554wp8mqU5YrpjZsmVL0Lcp9aGaNzQaDSsqKpK6GQEpLCxkBoMh6Nutr6/32DscKcISQo1Gw8TGBfqrtbVV9ueFTz/9tNRNCFhDQ0NQg1hdXa3KcYH+Ctu1o5mZmayjoyOoN6gcGhoK2rZCJTMzkzU2Nvr8PIPBgLa2Nq9vvDreyMiIX+vcaWhoYOXl5X61RZCWlgaTyYTVq1crJoDh6MX26ZwwJiYGACbMjzk8PCxalBekp6ez5uZmtLS08D/84Q/w9cLm/Px8LFmyBD/4wQ8m3tnGizYK63zhai5QX6dkWLRoETOZTHz16tUez3tLSkqwbt06x9/3+OOP85deemnMdbJ9fX0erzRJT09HTk7OhOtr+/r6fJob1NnGjRtZcXEx37NnD1577TWvz+Hz8/Pxy1/+0qe9XzDed1fb8XUgeE5OzoRpVIaHh+FuzhxXYmJikJWV5TYj7MaMUpKw2+28q6sL586dQ09PD7q7u9Hf348pU6Y4bo+WkZGBGTNmBDwpk1y0trbyTz/9FGfPnkV8fDzS09Mdt4FT2v3i7XY7P3v2LC5fvgybzYb+/n7Hre2EW6OF69Z2Svb/zqaJj45Q3EUAAAAASUVORK5CYII=;" parent="1" vertex="1">
          <mxGeometry x="100" y="323" width="74" height="74" as="geometry" />
        </mxCell>
        <mxCell id="krXXUxlrRhLwoEf3vAPq-6" value="AWS Cloud" style="points=[[0,0],[0.25,0],[0.5,0],[0.75,0],[1,0],[1,0.25],[1,0.5],[1,0.75],[1,1],[0.75,1],[0.5,1],[0.25,1],[0,1],[0,0.75],[0,0.5],[0,0.25]];outlineConnect=0;gradientColor=none;html=1;whiteSpace=wrap;fontSize=12;fontStyle=0;container=1;pointerEvents=0;collapsible=0;recursiveResize=0;shape=mxgraph.aws4.group;grIcon=mxgraph.aws4.group_aws_cloud;strokeColor=#232F3E;fillColor=none;verticalAlign=top;align=left;spacingLeft=30;fontColor=#232F3E;dashed=0;" vertex="1" parent="1">
          <mxGeometry x="480" y="180" width="430" height="360" as="geometry" />
        </mxCell>
        <mxCell id="krXXUxlrRhLwoEf3vAPq-9" value="VPC" style="points=[[0,0],[0.25,0],[0.5,0],[0.75,0],[1,0],[1,0.25],[1,0.5],[1,0.75],[1,1],[0.75,1],[0.5,1],[0.25,1],[0,1],[0,0.75],[0,0.5],[0,0.25]];outlineConnect=0;gradientColor=none;html=1;whiteSpace=wrap;fontSize=12;fontStyle=0;container=1;pointerEvents=0;collapsible=0;recursiveResize=0;shape=mxgraph.aws4.group;grIcon=mxgraph.aws4.group_vpc2;strokeColor=#8C4FFF;fillColor=none;verticalAlign=top;align=left;spacingLeft=30;fontColor=#AAB7B8;dashed=0;" vertex="1" parent="krXXUxlrRhLwoEf3vAPq-6">
          <mxGeometry x="30" y="40" width="370" height="340" as="geometry" />
        </mxCell>
        <mxCell id="krXXUxlrRhLwoEf3vAPq-12" value="Public subnet" style="points=[[0,0],[0.25,0],[0.5,0],[0.75,0],[1,0],[1,0.25],[1,0.5],[1,0.75],[1,1],[0.75,1],[0.5,1],[0.25,1],[0,1],[0,0.75],[0,0.5],[0,0.25]];outlineConnect=0;gradientColor=none;html=1;whiteSpace=wrap;fontSize=12;fontStyle=0;container=1;pointerEvents=0;collapsible=0;recursiveResize=0;shape=mxgraph.aws4.group;grIcon=mxgraph.aws4.group_security_group;grStroke=0;strokeColor=#7AA116;fillColor=#F2F6E8;verticalAlign=top;align=left;spacingLeft=30;fontColor=#248814;dashed=0;" vertex="1" parent="krXXUxlrRhLwoEf3vAPq-9">
          <mxGeometry x="10" y="100" width="350" height="158" as="geometry" />
        </mxCell>
        <mxCell id="krXXUxlrRhLwoEf3vAPq-18" value="security group&lt;div style=&quot;font-size: 14px;&quot;&gt;&lt;br style=&quot;font-size: 14px;&quot;&gt;&lt;/div&gt;" style="text;html=1;align=center;verticalAlign=middle;resizable=0;points=[];autosize=1;strokeColor=none;fillColor=none;fontStyle=0;fontColor=#FF0000;fontSize=14;fontFamily=Helvetica;" vertex="1" parent="krXXUxlrRhLwoEf3vAPq-12">
          <mxGeometry x="225" y="30" width="110" height="50" as="geometry" />
        </mxCell>
        <mxCell id="krXXUxlrRhLwoEf3vAPq-11" value="Availability Zone" style="fillColor=none;strokeColor=#147EBA;dashed=1;verticalAlign=top;fontStyle=0;fontColor=#147EBA;whiteSpace=wrap;html=1;" vertex="1" parent="krXXUxlrRhLwoEf3vAPq-9">
          <mxGeometry x="15" y="-70" width="340" height="410" as="geometry" />
        </mxCell>
        <mxCell id="krXXUxlrRhLwoEf3vAPq-67" value="" style="sketch=0;outlineConnect=0;fontColor=#232F3E;gradientColor=none;fillColor=#DD344C;strokeColor=none;dashed=0;verticalLabelPosition=bottom;verticalAlign=top;align=center;html=1;fontSize=12;fontStyle=0;aspect=fixed;pointerEvents=1;shape=mxgraph.aws4.identity_access_management_iam_roles_anywhere;" vertex="1" parent="krXXUxlrRhLwoEf3vAPq-9">
          <mxGeometry x="156" y="70" width="48" height="48" as="geometry" />
        </mxCell>
        <mxCell id="krXXUxlrRhLwoEf3vAPq-71" value="IAM User" style="text;html=1;align=center;verticalAlign=middle;resizable=0;points=[];autosize=1;strokeColor=none;fillColor=none;fontSize=13;" vertex="1" parent="krXXUxlrRhLwoEf3vAPq-9">
          <mxGeometry x="195" y="79" width="80" height="30" as="geometry" />
        </mxCell>
        <mxCell id="krXXUxlrRhLwoEf3vAPq-13" value="EC2 instance contents" style="points=[[0,0],[0.25,0],[0.5,0],[0.75,0],[1,0],[1,0.25],[1,0.5],[1,0.75],[1,1],[0.75,1],[0.5,1],[0.25,1],[0,1],[0,0.75],[0,0.5],[0,0.25]];outlineConnect=0;gradientColor=none;html=1;whiteSpace=wrap;fontSize=12;fontStyle=0;container=1;pointerEvents=0;collapsible=0;recursiveResize=0;shape=mxgraph.aws4.group;grIcon=mxgraph.aws4.group_ec2_instance_contents;strokeColor=#D86613;fillColor=none;verticalAlign=top;align=left;spacingLeft=30;fontColor=#D86613;dashed=0;" vertex="1" parent="krXXUxlrRhLwoEf3vAPq-6">
          <mxGeometry x="50" y="198" width="320" height="100" as="geometry" />
        </mxCell>
        <mxCell id="krXXUxlrRhLwoEf3vAPq-20" value="" style="shape=image;verticalLabelPosition=bottom;labelBackgroundColor=#ffffff;verticalAlign=top;aspect=fixed;imageAspect=0;image=data:image/svg+xml,PHN2ZyB4bWxuczpjYz0iaHR0cDovL2NyZWF0aXZlY29tbW9ucy5vcmcvbnMjIiB4bWxuczpkYz0iaHR0cDovL3B1cmwub3JnL2RjL2VsZW1lbnRzLzEuMS8iIHhtbG5zOmlua3NjYXBlPSJodHRwOi8vd3d3Lmlua3NjYXBlLm9yZy9uYW1lc3BhY2VzL2lua3NjYXBlIiB4bWxuczpyZGY9Imh0dHA6Ly93d3cudzMub3JnLzE5OTkvMDIvMjItcmRmLXN5bnRheC1ucyMiIHhtbG5zOnNvZGlwb2RpPSJodHRwOi8vc29kaXBvZGkuc291cmNlZm9yZ2UubmV0L0RURC9zb2RpcG9kaS0wLmR0ZCIgeG1sbnM6c3ZnPSJodHRwOi8vd3d3LnczLm9yZy8yMDAwL3N2ZyIgeG1sbnM9Imh0dHA6Ly93d3cudzMub3JnLzIwMDAvc3ZnIiB4bWxuczp4bGluaz0iaHR0cDovL3d3dy53My5vcmcvMTk5OS94bGluayIgdmVyc2lvbj0iMS4xIiBpZD0ic3ZnMTU4NzIiIGlua3NjYXBlOnZlcnNpb249IjAuOTIuMyAoMjQwNTU0NiwgMjAxOC0wMy0xMSkiIHNvZGlwb2RpOmRvY25hbWU9IndlYl9zZXJ2ZXIuc3ZnIiB4PSIwcHgiIHk9IjBweCIgdmlld0JveD0iMCAwIDU4Ljc3IDY5Ljc1IiBzdHlsZT0iZW5hYmxlLWJhY2tncm91bmQ6bmV3IDAgMCA1OC43NyA2OS43NTsiIHhtbDpzcGFjZT0icHJlc2VydmUiPiYjeGE7PHNvZGlwb2RpOm5hbWVkdmlldyBib3JkZXJjb2xvcj0iIzY2NjY2NiIgYm9yZGVyb3BhY2l0eT0iMSIgZml0LW1hcmdpbi1ib3R0b209IjAiIGZpdC1tYXJnaW4tbGVmdD0iMCIgZml0LW1hcmdpbi1yaWdodD0iMCIgZml0LW1hcmdpbi10b3A9IjAiIGdyaWR0b2xlcmFuY2U9IjEwIiBndWlkZXRvbGVyYW5jZT0iMTAiIGlkPSJuYW1lZHZpZXcxNTg3NCIgaW5rc2NhcGU6Y3VycmVudC1sYXllcj0ic3ZnMTU4NzIiIGlua3NjYXBlOmN4PSIzOC45NTg2NTUiIGlua3NjYXBlOmN5PSI0Ni40OTk5ODUiIGlua3NjYXBlOnBhZ2VvcGFjaXR5PSIwIiBpbmtzY2FwZTpwYWdlc2hhZG93PSIyIiBpbmtzY2FwZTp3aW5kb3ctaGVpZ2h0PSIxMDE3IiBpbmtzY2FwZTp3aW5kb3ctbWF4aW1pemVkPSIxIiBpbmtzY2FwZTp3aW5kb3ctd2lkdGg9IjE5MjAiIGlua3NjYXBlOndpbmRvdy14PSItOCIgaW5rc2NhcGU6d2luZG93LXk9Ii04IiBpbmtzY2FwZTp6b29tPSI5LjEyNjMxODciIG9iamVjdHRvbGVyYW5jZT0iMTAiIHBhZ2Vjb2xvcj0iI2ZmZmZmZiIgc2hvd2dyaWQ9ImZhbHNlIj4mI3hhOwk8L3NvZGlwb2RpOm5hbWVkdmlldz4mI3hhOzxnIGlkPSJnMTU4NzAiIHRyYW5zZm9ybT0idHJhbnNsYXRlKC0wLjc1MDAzNjE5LC0wLjc1KSI+JiN4YTsJPHRpdGxlIGlkPSJ0aXRsZTE1NzQ2Ij5QYWdlLTE8L3RpdGxlPiYjeGE7CTxnIGlkPSJncm91cDc3OTktMSIgdHJhbnNmb3JtPSJ0cmFuc2xhdGUoMS41LC0xLjUpIj4mI3hhOwkJPHRpdGxlIGlkPSJ0aXRsZTE1NzQ4Ij5XZWIgU2VydmVyPC90aXRsZT4mI3hhOwkJPGcgaWQ9Imdyb3VwNzgwMC0yIj4mI3hhOwkJCTx0aXRsZSBpZD0idGl0bGUxNTc1MCI+U2hlZXQuNzgwMDwvdGl0bGU+JiN4YTsJCQk8ZyBpZD0iZ3JvdXA3ODAxLTMiPiYjeGE7CQkJCTx0aXRsZSBpZD0idGl0bGUxNTc1MiI+ZzE2NDA4PC90aXRsZT4mI3hhOwkJCQk8ZyBpZD0ic2hhcGU3ODAyLTQiPiYjeGE7CQkJCQk8dGl0bGUgaWQ9InRpdGxlMTU3NTQiPnJlY3QxNjM4MDwvdGl0bGU+JiN4YTsJCQkJCSYjeGE7CQkJCQkJPHJlY3QgaWQ9InJlY3QxNTc1NiIgeD0iMCIgeT0iMyIgc3R5bGU9ImZpbGw6I0ZGRkZGRjtzdHJva2U6IzU1NkE4QTtzdHJva2Utd2lkdGg6MS41O3N0cm9rZS1taXRlcmxpbWl0OjM7IiB3aWR0aD0iMzkuNzUiIGhlaWdodD0iNjguMjUiLz4mI3hhOwkJCQk8L2c+JiN4YTsJCQkJPGcgaWQ9Imdyb3VwNzgwMy02IiB0cmFuc2Zvcm09InRyYW5zbGF0ZSgxLjUsLTAuNzUpIj4mI3hhOwkJCQkJPHRpdGxlIGlkPSJ0aXRsZTE1NzU5Ij5nMTY0MDA8L3RpdGxlPiYjeGE7CQkJCQk8ZyBpZD0ic2hhcGU3ODA0LTciIHRyYW5zZm9ybT0idHJhbnNsYXRlKDE4KSI+JiN4YTsJCQkJCQk8dGl0bGUgaWQ9InRpdGxlMTU3NjEiPnJlY3QxNjM4MjwvdGl0bGU+JiN4YTsJCQkJCQk8cmVjdCBpZD0icmVjdDE1NzYzIiB4PSIwIiB5PSI0LjUiIHN0eWxlPSJmaWxsOiNFNUU1RTU7IiB3aWR0aD0iMTkuNSIgaGVpZ2h0PSI2Ni43NSIvPiYjeGE7CQkJCQk8L2c+JiN4YTsJCQkJCTxnIGlkPSJzaGFwZTc4MDUtOSIgdHJhbnNmb3JtPSJ0cmFuc2xhdGUoMCwtNDgpIj4mI3hhOwkJCQkJCTx0aXRsZSBpZD0idGl0bGUxNTc2NiI+cmVjdDE2Mzg0PC90aXRsZT4mI3hhOwkJCQkJCTxyZWN0IGlkPSJyZWN0MTU3NjgiIHg9IjAiIHk9IjY5IiBzdHlsZT0iZmlsbDojMkJDN0Y0OyIgd2lkdGg9IjE4IiBoZWlnaHQ9IjIuMjUiLz4mI3hhOwkJCQkJPC9nPiYjeGE7CQkJCQk8ZyBpZD0ic2hhcGU3ODA2LTExIiB0cmFuc2Zvcm09InRyYW5zbGF0ZSgwLC01OC41KSI+JiN4YTsJCQkJCQk8dGl0bGUgaWQ9InRpdGxlMTU3NzEiPnBvbHlnb24xNjM4NjwvdGl0bGU+JiN4YTsJCQkJCQk8cmVjdCBpZD0icmVjdDE1NzczIiB4PSIwIiB5PSI2OSIgc3R5bGU9ImZpbGw6bm9uZTsiIHdpZHRoPSIyNyIgaGVpZ2h0PSIyLjI1Ii8+JiN4YTsJCQkJCTwvZz4mI3hhOwkJCQkJPGcgaWQ9InNoYXBlNzgwNy0xMyIgdHJhbnNmb3JtPSJ0cmFuc2xhdGUoMCwtNTguNSkiPiYjeGE7CQkJCQkJPHRpdGxlIGlkPSJ0aXRsZTE1Nzc2Ij5wb2x5bGluZTE2Mzg4PC90aXRsZT4mI3hhOwkJCQkJCTxyZWN0IGlkPSJyZWN0MTU3NzgiIHg9IjAiIHk9IjY5IiBzdHlsZT0iZmlsbDpub25lOyIgd2lkdGg9IjI3IiBoZWlnaHQ9IjIuMjUiLz4mI3hhOwkJCQkJPC9nPiYjeGE7CQkJCQk8ZyBpZD0ic2hhcGU3ODA4LTE1IiB0cmFuc2Zvcm09InRyYW5zbGF0ZSgwLC01My4yNSkiPiYjeGE7CQkJCQkJPHRpdGxlIGlkPSJ0aXRsZTE1NzgxIj5yZWN0MTYzOTA8L3RpdGxlPiYjeGE7CQkJCQkJPHJlY3QgaWQ9InJlY3QxNTc4MyIgeD0iMCIgeT0iNjkiIHN0eWxlPSJmaWxsOiMyQkM3RjQ7IiB3aWR0aD0iMTgiIGhlaWdodD0iMi4yNSIvPiYjeGE7CQkJCQk8L2c+JiN4YTsJCQkJCTxnIGlkPSJzaGFwZTc4MDktMTciIHRyYW5zZm9ybT0idHJhbnNsYXRlKDAsLTU4LjUpIj4mI3hhOwkJCQkJCTx0aXRsZSBpZD0idGl0bGUxNTc4NiI+cmVjdDE2MzkyPC90aXRsZT4mI3hhOwkJCQkJCTxyZWN0IGlkPSJyZWN0MTU3ODgiIHg9IjAiIHk9IjY5IiBzdHlsZT0iZmlsbDojMkJDN0Y0OyIgd2lkdGg9IjE4IiBoZWlnaHQ9IjIuMjUiLz4mI3hhOwkJCQkJPC9nPiYjeGE7CQkJCQk8ZyBpZD0ic2hhcGU3ODEwLTE5IiB0cmFuc2Zvcm09InRyYW5zbGF0ZSgxOCwtNDgpIj4mI3hhOwkJCQkJCTx0aXRsZSBpZD0idGl0bGUxNTc5MSI+cmVjdDE2Mzk0PC90aXRsZT4mI3hhOwkJCQkJCTxyZWN0IGlkPSJyZWN0MTU3OTMiIHg9IjAiIHk9IjY5IiBzdHlsZT0iZmlsbDojNTU2QThBOyIgd2lkdGg9IjE5LjUiIGhlaWdodD0iMi4yNSIvPiYjeGE7CQkJCQk8L2c+JiN4YTsJCQkJCTxnIGlkPSJzaGFwZTc4MTEtMjEiIHRyYW5zZm9ybT0idHJhbnNsYXRlKDE4LC01My4yNSkiPiYjeGE7CQkJCQkJPHRpdGxlIGlkPSJ0aXRsZTE1Nzk2Ij5yZWN0MTYzOTY8L3RpdGxlPiYjeGE7CQkJCQkJPHJlY3QgaWQ9InJlY3QxNTc5OCIgeD0iMCIgeT0iNjkiIHN0eWxlPSJmaWxsOiM1NTZBOEE7IiB3aWR0aD0iMTkuNSIgaGVpZ2h0PSIyLjI1Ii8+JiN4YTsJCQkJCTwvZz4mI3hhOwkJCQkJPGcgaWQ9InNoYXBlNzgxMi0yMyIgdHJhbnNmb3JtPSJ0cmFuc2xhdGUoMTgsLTU4LjUpIj4mI3hhOwkJCQkJCTx0aXRsZSBpZD0idGl0bGUxNTgwMSI+cmVjdDE2Mzk4PC90aXRsZT4mI3hhOwkJCQkJCTxyZWN0IGlkPSJyZWN0MTU4MDMiIHg9IjAiIHk9IjY5IiBzdHlsZT0iZmlsbDojNTU2QThBOyIgd2lkdGg9IjE5LjUiIGhlaWdodD0iMi4yNSIvPiYjeGE7CQkJCQk8L2c+JiN4YTsJCQkJPC9nPiYjeGE7CQkJCTxnIGlkPSJzaGFwZTc4MTMtMjUiIHRyYW5zZm9ybT0idHJhbnNsYXRlKDAuNzUsLTU5LjI1KSI+JiN4YTsJCQkJCTx0aXRsZSBpZD0idGl0bGUxNTgwNyI+cmVjdDE2NDAyPC90aXRsZT4mI3hhOwkJCQkJPHJlY3QgaWQ9InJlY3QxNTgwOSIgeD0iMCIgeT0iNjkiIHN0eWxlPSJmaWxsOiM1NTZBOEE7IiB3aWR0aD0iMi4yNSIgaGVpZ2h0PSIyLjI1Ii8+JiN4YTsJCQkJPC9nPiYjeGE7CQkJCTxnIGlkPSJzaGFwZTc4MTQtMjciIHRyYW5zZm9ybT0idHJhbnNsYXRlKDAuNzUsLTU0KSI+JiN4YTsJCQkJCTx0aXRsZSBpZD0idGl0bGUxNTgxMiI+cmVjdDE2NDA0PC90aXRsZT4mI3hhOwkJCQkJPHJlY3QgaWQ9InJlY3QxNTgxNCIgeD0iMCIgeT0iNjkiIHN0eWxlPSJmaWxsOiM1NTZBOEE7IiB3aWR0aD0iMi4yNSIgaGVpZ2h0PSIyLjI1Ii8+JiN4YTsJCQkJPC9nPiYjeGE7CQkJCTxnIGlkPSJzaGFwZTc4MTUtMjkiIHRyYW5zZm9ybT0idHJhbnNsYXRlKDAuNzUsLTQ4Ljc1KSI+JiN4YTsJCQkJCTx0aXRsZSBpZD0idGl0bGUxNTgxNyI+cmVjdDE2NDA2PC90aXRsZT4mI3hhOwkJCQkJPHJlY3QgaWQ9InJlY3QxNTgxOSIgeD0iMCIgeT0iNjkiIHN0eWxlPSJmaWxsOiM1NTZBOEE7IiB3aWR0aD0iMi4yNSIgaGVpZ2h0PSIyLjI1Ii8+JiN4YTsJCQkJPC9nPiYjeGE7CQkJPC9nPiYjeGE7CQk8L2c+JiN4YTsJCTxnIGlkPSJncm91cDc4MTYtMzEiIHRyYW5zZm9ybT0idHJhbnNsYXRlKDI0LjA2NTgsLTIuMjc3NjcpIj4mI3hhOwkJCTx0aXRsZSBpZD0idGl0bGUxNTgyNCI+SFRUUC4xNDcyNDwvdGl0bGU+JiN4YTsJCQk8ZyBpZD0ic2hhcGU3ODE3LTMyIiB0cmFuc2Zvcm09InRyYW5zbGF0ZSg1LjAzOTM3LC01LjE4NjkxKSI+JiN4YTsJCQkJPHRpdGxlIGlkPSJ0aXRsZTE1ODI2Ij5wYXRoOTYxMDwvdGl0bGU+JiN4YTsJCQkJJiN4YTsJCQkJCTxwYXRoIGlkPSJwYXRoMTU4MjgiIGlua3NjYXBlOmNvbm5lY3Rvci1jdXJ2YXR1cmU9IjAiIHN0eWxlPSJmaWxsOiNGRkZGRkY7c3Ryb2tlOiM1NTZBOEE7c3Ryb2tlLXdpZHRoOjAuNzU7c3Ryb2tlLW1pdGVybGltaXQ6MzsiIGQ9IiAgICAgIE0yOC4xOCw1OS41OGMwLDkuMTItNy4zOSwxNi41MS0xNi41MSwxNi41MVMtNC44NCw2OC43LTQuODQsNTkuNThjMC05LjEyLDcuMzktMTYuNTEsMTYuNTEtMTYuNTEgICAgICBDMjAuNzksNDMuMDgsMjguMTcsNTAuNDYsMjguMTgsNTkuNTh6Ii8+JiN4YTsJCQk8L2c+JiN4YTsJCQk8ZyBpZD0ic2hhcGU3ODE4LTM0IiB0cmFuc2Zvcm09InRyYW5zbGF0ZSgwLjIwMzczMiwtMC4zNTEyNzQpIj4mI3hhOwkJCQk8dGl0bGUgaWQ9InRpdGxlMTU4MzEiPnBhdGg5NjEyPC90aXRsZT4mI3hhOwkJCQkmI3hhOwkJCQkJPHBhdGggaWQ9InBhdGgxNTgzMyIgaW5rc2NhcGU6Y29ubmVjdG9yLWN1cnZhdHVyZT0iMCIgc3R5bGU9ImZpbGw6I0Q0RTJGNTtzdHJva2U6IzU1NkE4QTtzdHJva2Utd2lkdGg6MC43NTtzdHJva2UtbWl0ZXJsaW1pdDozOyIgZD0iICAgICAgTTMzLjAyLDU0Ljc0YzAsOS4xMi03LjM5LDE2LjUxLTE2LjUxLDE2LjUxQzcuMzksNzEuMjUsMCw2My44NiwwLDU0Ljc0YzAsMCwwLDAsMCwwSDMzLjAyeiIvPiYjeGE7CQkJPC9nPiYjeGE7CQkJPGcgaWQ9InNoYXBlNzgxOS0zNiIgdHJhbnNmb3JtPSJ0cmFuc2xhdGUoMS4yNTc1NSwtNC45Mzg1MikiPiYjeGE7CQkJCTx0aXRsZSBpZD0idGl0bGUxNTgzNiI+cGF0aDk2MTQ8L3RpdGxlPiYjeGE7CQkJCSYjeGE7CQkJCQk8cGF0aCBpZD0icGF0aDE1ODM4IiBpbmtzY2FwZTpjb25uZWN0b3ItY3VydmF0dXJlPSIwIiBzdHlsZT0iZmlsbDojNTU2QThBO3N0cm9rZTojNTU2QThBO3N0cm9rZS13aWR0aDowLjc1O3N0cm9rZS1taXRlcmxpbWl0OjM7IiBkPSIgICAgICBNMTUuNDYsNDMuODdjOC41NCwwLDE1LjQ1LDYuOTIsMTUuNDUsMTUuNDZjMCw4LjU0LTYuOTIsMTUuNDUtMTUuNDYsMTUuNDVDNi45Miw3NC43OCwwLDY3Ljg2LDAsNTkuMzMgICAgICBDMCw1MC43OSw2LjkyLDQzLjg3LDE1LjQ2LDQzLjg3QzE1LjQ1LDQzLjg3LDE1LjQ2LDQzLjg3LDE1LjQ2LDQzLjg3eiBNMTUuNDYsNDIuNDdjLTkuMzEsMC0xNi44Niw3LjU1LTE2Ljg2LDE2Ljg2ICAgICAgczcuNTUsMTYuODYsMTYuODYsMTYuODZzMTYuODYtNy41NSwxNi44Ni0xNi44NmMwLDAsMCwwLDAsMEMzMi4zMiw1MC4wMiwyNC43Nyw0Mi40NywxNS40Niw0Mi40N3oiLz4mI3hhOwkJCTwvZz4mI3hhOwkJCTxnIGlkPSJncm91cDc4MjAtMzgiPiYjeGE7CQkJCTx0aXRsZSBpZD0idGl0bGUxNTg0MSI+Zzk2MjA8L3RpdGxlPiYjeGE7CQkJCTxnIGlkPSJzaGFwZTc4MjEtMzkiIHRyYW5zZm9ybT0idHJhbnNsYXRlKDguOTg1NTkpIj4mI3hhOwkJCQkJPHRpdGxlIGlkPSJ0aXRsZTE1ODQzIj5wYXRoOTYxNjwvdGl0bGU+JiN4YTsJCQkJCSYjeGE7CQkJCQkJPHBhdGggaWQ9InBhdGgxNTg0NSIgaW5rc2NhcGU6Y29ubmVjdG9yLWN1cnZhdHVyZT0iMCIgc3R5bGU9ImZpbGw6IzU1NkE4QTtzdHJva2U6IzU1NkE4QTtzdHJva2Utd2lkdGg6MC43NTtzdHJva2UtbWl0ZXJsaW1pdDozOyIgZD0iICAgICAgIE03LjM4LDM5LjEyYzIuODEsMCw1Ljk3LDYuNTcsNS45NywxNS4zNnMtMy4xNiwxNS4zNi01Ljk3LDE1LjM2cy01Ljk3LTYuNTYtNS45Ny0xNS4zNVM0LjU3LDM5LjEyLDcuMzgsMzkuMTJ6IE03LjM4LDM3LjcyICAgICAgIEMzLjMsMzcuNzIsMCw0NS4yMiwwLDU0LjQ4czMuMywxNi43Nyw3LjM4LDE2Ljc3YzQuMDcsMCw3LjM3LTcuNSw3LjM3LTE2Ljc2UzExLjQ1LDM3LjcyLDcuMzgsMzcuNzJ6Ii8+JiN4YTsJCQkJPC9nPiYjeGE7CQkJCTxnIGlkPSJzaGFwZTc4MjItNDEiIHRyYW5zZm9ybT0idHJhbnNsYXRlKDAsLTE2Ljg2MTIpIj4mI3hhOwkJCQkJPHRpdGxlIGlkPSJ0aXRsZTE1ODQ4Ij5saW5lOTYxODwvdGl0bGU+JiN4YTsJCQkJCSYjeGE7CQkJCQkJPHBhdGggaWQ9InBhdGgxNTg1MCIgaW5rc2NhcGU6Y29ubmVjdG9yLWN1cnZhdHVyZT0iMCIgc3R5bGU9ImZpbGw6bm9uZTtzdHJva2U6IzU1NkE4QTtzdHJva2Utd2lkdGg6MS41O3N0cm9rZS1taXRlcmxpbWl0OjM7IiBkPSIgICAgICAgTTAsNzEuMjVoMzIuODciLz4mI3hhOwkJCQk8L2c+JiN4YTsJCQk8L2c+JiN4YTsJCQk8ZyBpZD0ic2hhcGU3ODIzLTQ0IiB0cmFuc2Zvcm09InRyYW5zbGF0ZSg0LjA3NDc3LC0yNS4yOTE3KSI+JiN4YTsJCQkJPHRpdGxlIGlkPSJ0aXRsZTE1ODU0Ij5wYXRoOTYyMjwvdGl0bGU+JiN4YTsJCQkJPHBhdGggaWQ9InBhdGgxNTg1NiIgaW5rc2NhcGU6Y29ubmVjdG9yLWN1cnZhdHVyZT0iMCIgc3R5bGU9ImZpbGw6bm9uZTsiIGQ9Ik0wLDY5LjM1YzMuMDgsMS4yLDcuNjEsMS45LDEyLjY0LDEuOSAgICAgIHM5LjU1LTAuNywxMi42NC0xLjlIMHoiLz4mI3hhOwkJCQkmI3hhOwkJCQkJPHBhdGggaWQ9InBhdGgxNTg1OCIgaW5rc2NhcGU6Y29ubmVjdG9yLWN1cnZhdHVyZT0iMCIgc3R5bGU9ImZpbGw6bm9uZTtzdHJva2U6IzU1NkE4QTtzdHJva2Utd2lkdGg6MS41O3N0cm9rZS1taXRlcmxpbWl0OjM7IiBkPSIgICAgICBNMCw2OS4zNWMzLjA4LDEuMiw3LjYxLDEuOSwxMi42NCwxLjlzOS41NS0wLjcsMTIuNjQtMS45Ii8+JiN4YTsJCQk8L2c+JiN4YTsJCQk8ZyBpZD0ic2hhcGU3ODI0LTQ3IiB0cmFuc2Zvcm09InRyYW5zbGF0ZSg0LjA3NDc3LC02LjUyNjY4KSI+JiN4YTsJCQkJPHRpdGxlIGlkPSJ0aXRsZTE1ODYxIj5wYXRoOTYyNDwvdGl0bGU+JiN4YTsJCQkJPHBhdGggaWQ9InBhdGgxNTg2MyIgaW5rc2NhcGU6Y29ubmVjdG9yLWN1cnZhdHVyZT0iMCIgc3R5bGU9ImZpbGw6bm9uZTsiIGQ9Ik0wLDcxLjI1YzMuMDgtMS4yLDcuNjEtMS45LDEyLjY0LTEuOSAgICAgIHM5LjU1LDAuNywxMi42NCwxLjlIMHoiLz4mI3hhOwkJCQkmI3hhOwkJCQkJPHBhdGggaWQ9InBhdGgxNTg2NSIgaW5rc2NhcGU6Y29ubmVjdG9yLWN1cnZhdHVyZT0iMCIgc3R5bGU9ImZpbGw6bm9uZTtzdHJva2U6IzU1NkE4QTtzdHJva2Utd2lkdGg6MS41O3N0cm9rZS1taXRlcmxpbWl0OjM7IiBkPSIgICAgICBNMCw3MS4yNWMzLjA4LTEuMiw3LjYxLTEuOSwxMi42NC0xLjlzOS41NSwwLjcsMTIuNjQsMS45Ii8+JiN4YTsJCQk8L2c+JiN4YTsJCTwvZz4mI3hhOwk8L2c+JiN4YTs8L2c+JiN4YTs8L3N2Zz4=;" vertex="1" parent="krXXUxlrRhLwoEf3vAPq-13">
          <mxGeometry x="200" y="32" width="50" height="59.33" as="geometry" />
        </mxCell>
        <mxCell id="krXXUxlrRhLwoEf3vAPq-21" value="&lt;font style=&quot;font-size: 14px;&quot;&gt;web server&lt;/font&gt;" style="text;html=1;align=center;verticalAlign=middle;resizable=0;points=[];autosize=1;strokeColor=none;fillColor=none;" vertex="1" parent="krXXUxlrRhLwoEf3vAPq-13">
          <mxGeometry x="110" y="52" width="90" height="30" as="geometry" />
        </mxCell>
        <mxCell id="krXXUxlrRhLwoEf3vAPq-69" style="edgeStyle=orthogonalEdgeStyle;rounded=0;orthogonalLoop=1;jettySize=auto;html=1;entryX=0.5;entryY=0;entryDx=0;entryDy=0;" edge="1" parent="krXXUxlrRhLwoEf3vAPq-6" source="krXXUxlrRhLwoEf3vAPq-67" target="krXXUxlrRhLwoEf3vAPq-13">
          <mxGeometry relative="1" as="geometry" />
        </mxCell>
        <mxCell id="krXXUxlrRhLwoEf3vAPq-76" style="edgeStyle=orthogonalEdgeStyle;rounded=0;orthogonalLoop=1;jettySize=auto;html=1;entryX=1;entryY=0.25;entryDx=0;entryDy=0;" edge="1" parent="1" source="krXXUxlrRhLwoEf3vAPq-28" target="krXXUxlrRhLwoEf3vAPq-13">
          <mxGeometry relative="1" as="geometry" />
        </mxCell>
        <mxCell id="krXXUxlrRhLwoEf3vAPq-28" value="" style="shape=image;verticalLabelPosition=bottom;labelBackgroundColor=#ffffff;verticalAlign=top;aspect=fixed;imageAspect=0;image=data:image/png,iVBORw0KGgoAAAANSUhEUgAAAcUAAAEdCAYAAAB9rHzGAAA7HklEQVR42u2dB3hT18G/Q3Zom6Zfm3zNv22SjuRL0y/p16ZpISyTEAKEkQAOK2xspsHGYFaCGGHF4IX3BG8Lb9nytjwkWZLlIUsesi1vSx54b8Cc/z0iJEAIYGJjjd/7PL+npJD4cu45573n3jMeewwAAAAAABgXsYrGV6JkNRu9hWUbdDWx8vqN3IqK53G3AAAAjCkO6YqF3yQXke2hQp2MRVgOOZsqJ46ZJa/jbgEAABhTdrBzFm4IyCbvn43TyUw9F0/MgwVkZ7gIUgQAAAApQooAAAAgRUgRAAAApAgpAgAAgBQhRQAAAJAipAgAAABShBQBAABAipAiAAAASBFSBAAAAClCigAAACBFSBEAAACkCCkCAACAFCFFAAAAkCKkCAAAAFKEFAEAAECKkCIAAABIEVIEAAAAKUKKAAAAIEVIEQAAAKQIKQIAAIAUIUUAAACQIqQIAAAAUoQUAQAAQIqQIgAAAEgRUgQAAAAgRQAAAABSBAAAACBFAAAAAFIEAAAAIEUAAAAAUgQAAAAgRQAAAABSBAAAACBFAAAAAFIEAAAAIEUAAAAAUgQAAAAgRUgRAAAApAgpAgCMk7dMTZ/+y9y5z+hq5jIxMTF58i6XPmGuDl/3zWs3NTV94s4L3xUhmb4lWJBr4sCV6GI+dEyQbGcLc3dHS/6AFgIAMBrshPXPefGV+Uw0uhquol4jrWs9d+e1xxXV/ilWXlfno8PXHlFY08RRNKy589q58rrZ0UW1am+BslEX48OEU1SnjpXV/BGtBABgNCzw4Exc6JZSx4ToYha4ppDDnDwSJKn0uvPaD8SL39gXnTv0mUeqbl47k52XRORAbO7mH1x7TO7C3RFioqvlvsg9leyNlJAvOQV4fQoAMB7ePcKZ+P7Z+Dpd/bY12TaOWDJi8RaU/UCK20PFb2wJEQ5Nt4vXzWtnsuZiFtkWKvyBFPFNEegT3UNDb1a3doV+4ZcRklzSeBolAiBFSBFSBEZJ35Ur/6i+3O3jI1SST1ySyTFugTpUotpGCJmA0gGQIqQIKQKjQlLbahaRX639HEDrxsfnE8mJhMJGuxT55809/Us6CHkBpQQgRUgRUgQGj41PzMw9EZLwxZ5p2rZ4o01yyAymzZkF8UlYnoo0dPXaW1pavozSApAipAgpAoOloL7V5FRykWSxx/dCvDVTmMxzSSZ2qXIirWn1qq4mz6LUAKQIKUKKwODoHBj4o1DVzN4UyL+rEG/NR04JxIlXPKBQd5qp2tt/idIDkCKkCCkCg0LV2rXqfEYxmXbuwdrWR06JJLao7pqssX2FpSUL3xgBpAgpQorAMHAKDHzem1+6Y0PgyOonFWO8vJ7I1ZdXu7DZP0dJAkgRUoQUgd6TWtp49Fyq/Mr7tpwR15sPHRPoko0r4fnVri6RKX9FaQJIEVKEFIHecswz+G97oyQBn3qkauvvw9SdSYxMt4cJSYC4Mv6Um9trKFUAKUKKkCLQSzLLmyIPxEgfWojft1tGjKFCklnV5BgYyH0eJQsgRUgRUgR6hROX+8yuS6KYzzzSRqUOzbCPJ2dT5ddKNe072Gz20yhhAClCipAi0AsIIY9ruvpTd4eLBqaeG716NPt8IrkoquisaOk8gVIGkCKkCCkCvYDFSNE9s6xgmQ9vVOsRXeC/xDONuGcrm5q6+p1Q0gBShBQhRaDz7EmS/czUO132gQN31OsSFSOVrUd2aXt770AwMyp9AiUOIEVIEVIEOomFk9MzHHld5SL31KtjVZ+oGBe5p5Cj8QXlHlLpUyh1AClCipAi0EnWsVjPHosvaKenX4xlnaK74yxwTxm05ykk5kc8JqLkAaQIKUKKQOcwWcd6doFbavu0R9CO6M9Y5sO7lljacA4lDyBFSBFSBDpHvLxuC9OGBh5d3Yoj51Llak1X/w4cVAwgRUgRUgQ6RURBVfZMe+4jrV/LfNIJt7hezuORJ3EHAKQIKUKKQGewicrNnvaI2xD9eUu90jUnEgut6UQf3AUAKUKKkCIYd/qvXNlpFsxvmDIOdYyOTreGCAfyalrOV7f0/hZ3A0CKkCKkCMYN+j2vpq1btM4/a9zqmQkjRn9RxfVgScXfcEcApAgpQopgXKWYVFwvGu1dbB5mxxvrcPHaz9Zs/zXuCoAUIUVIEYybFF2zSkV0Uf1417evEwpJeL5qA8vP71ncGQApQoqQIhgPK07Yzs4RfeSUOO71bZZjAoktqhuube9bgBsDIEVIEVIE4yLFT91TRDN0pP3Q9nCEk7+ThWOmAKQIKUKK4BEz4ThX/mcTe26B7rR1DnHLLB1Oq2j+M24PgBQhRUgRPDLq6+ufK9N01K/0y7iuS+1llV/GsC1P9r+mpqY4SQNAipAipAgeDVK1emJebatmhS9Pp+od3TQ8sbihXVrTOhN3CUCKkCKkCB4JHKl6YmRhrWaxZ5rO1b29URJyhFM4G3cJQIqQIqQIHgkejBR9+ErNQrdUnat7HzhqF/SX5Fa1LMWdApAipAgpgkciRa9s3ZQibTe7w0XENlW+E6doAEgRUoQUwZhzhCOd+BUnX/Px+SSdrH8zHbjET1iuVncNfIm7BSBFSBFSBGOKOSPFnZdEmlk6sHD/x5ZnHE8oIEklja64WwBShBQhRTDmUtwelqPDUowjqy9kkgMxUkgRQIqQIqQIjFuK2gk3Dglkc5Agraq59++4YwBShBQhRWDUUqTtZxdbRFJLGr7CHQOQIqQIKQKjliLNEq80sj9GCimCRyhFD+lTTOU7MeUsx1kXM5kJI0Vnb2HpyjuvfUuk4KUtITmO08/F6+y1r7mY6bKNLZp657VvDRa9w0jRRVfLnZGi8+ZggYsFO+tFtBJIcfzWLCYQ16xSTs/Q0F9x1wAAABi1FGkc0xWksbNvI+4aAAAAo5fiwVgpSSqphxQBAACMnRR3sPVDimZBfOLAk0OKAAAAxgYPRooO6QrNJ67JOi/Fhe4pZEMQH1LUuyevnfte2WZp81ddjuX+/a/d5dInbLPa/xedvm4bJgcPvnznhbNYrKd3WB94U+fL3ZL1wp3Xvm0b6+e6ft3bmHKnZXzntVtbW/9G1699k4XN79Er3UOKdO9THd0Q/G6zuDcHZX9p6x/5Eu6cHiFQNaXyVU3Dupr8utbh2o5e8Z3XTc9VY36/VpevXaFuH65t7/G889oLG1rfKKq/PCjQ4WsvqLt8vai+zfzOa1c0ti8orL98XZfLXVbfdr2kvusHSzLk9W1HJDUtw7p87Uwi0SvdW4o++iJFWw4JlapIZ/+QLe6cHjHLKSGdCdHVbArMJv455ZI7r3uBB2ci8/t1unrdHzomkH1RueSiuOIH6xR3R4rfsLwkHprjnKib187EPEhAdkfk/mCdIvP/LdwWItTZ+jL7fCLZyRaRvXdZp2gdKTm63IdHdLm+z3JKjEKv9ONwmIfhtDK1xtQrXS+k6JJZQgob2s6OdjmwWKzHHyT0jRpqzQhhbl66LlesLy5kEB+B8gdSxOJ9LN4f6eL97aGio4vcdX2EEQ8p3gP6hkhS3aKhDzf6IEW7VDnJrtSMqhSlqvZfFtRfFufXXy66XxghW6HWQIqQIqQIKRooajWZqO7s1ay5mKkXUvwqVkpCJZUjkmJ+3eXjPKU6mi2tirZLVURvYwujl3ilR08+F6eNiQOXax7Mv7qZqef3C/PwUMH0RdHT7eOjl/vyopk+KfpIXH60r0AZncn8jIb2HhfUKkgRUoQUIUU9hc1mP8Etrp/7qXuqcorOSzGO2ERJaP/1nRRNTU2foGF+8QSvoPqFUnVncERBTdS5FHkUI7Go6XbcyI0B2S0bA7PJar9MstQrncx1SdZuMv5TroWWFf2kM4/5b9E2sMI3g9CfsT0sp3uuS0rU1lBhlEtGSZRY1RqVrmz++2M3r9MYX79CipAipAgp6hWETDAL5ItoJ69PUhwYGHits3+wNLKguuxgjLRsiWda+WceqcOfMKKa7ZRITOy549RmbhyO/PH5REaYKVScdSxOXlm8vLYsW9U0H1KEFCFFSBFS1Gknkgknk2QiXV+rSPsAq3ARuSiqrA4UVyTui8rN3h4qZEZpPEKvfbwkeL9MY9rQfNcUssovg3zqkVq0MZCfdEFYnlTR2r0JUoQUIUVIEVLUQSkG56pEzEhL56XISEU7k3tzMJ986q77y0ju1p6owOnuPAdipFKHjGLHOHn9F5AipAgpQoqQog5JUVzTKqIjGX2TjD5n9vkkspOdQ1ic/Jx1/llmVI48HnkSUoQUIUVIEVIcZ4KS+BuXefNqIKtH2y/QGbW036Ij4P3Rud1fJxac+Pq85zZIEVKEFCFFSHGc2RoiyKaTRCCs8ckUpuwXuKWQvZHidrs0hWd9R59zdUfHC5AipAgpQoqQ4jjgmlWSPUNH25AxhU4YYvoKciGnYkjT1Xe4t5f8FlKEFCFFSBFSfMRklWuyf+r6PWR0+gva7lb5ZVxTtXandw8NvQkpQoqQIqQIKT5iLvcMBM5xTro2BWIa98xyTCCOvOJeuzTl7/D6FFKEFCFFSHEcsPVP+hlTF9vpwnOIaXzDtKvhmo6eppq+vpchRUgRUoQUIcVxgOXn92xaWWP7Zx6pENM4hhmtE9fMktqogmo6yWYCpAgpQoqQIqQ4DrDZ7Ke7BgazmfrYPx0TbsYt6/2zBzRdAwmEGMiaRUgRUoQUIUV9hS4eP5MsK1is47vbGGpoH+aeXaqgGyoYTKWCFCFFSBFS1FeYzvhxSXVLAT0mCZJ69BuJm3qlkdq2HrlBVSpIEVKEFCFFvf626MF+ZWNgVhL9tgVZPbp85JRIIvKrB2Myhf+AFCFFSBFShBR1CC++MnJLiEBbdyGssc8Hjglka4jwsiu/bKGpqenTkCKkCClCipCiDnGKnfTupsDsMHouIcQ4tplpzyWbgwXX8+sv10nV6okGV5kgRUgRUoQUDYEMpfqEXZqCTLLlQF5j1q9xiEVYDpHWthZEJyX9wSCWYECKkCKkCCkaIvtdg/50KDr3xHy3ZAhsjPo0usdpkKQi2Ysd9a7BViRIEVKEFCFFQ4FTXL/qK04ewekZox96IsaxhILoREXDTIOuRJAipAgpQoqGgrqz71/BuSrBIvcUiGyUJ9ZsCRHkHU/Mn2XwlQhShBQhRUjRkPDhl33OdODVM3GCxqhkhj2XrPXPIh78sm+MogJBipAipAgpGhoBYpXdoViptj5AbA+fD5kRolW4iHAV9ZXdQ0OfQoqQIqQIKUKKekj34LX5WUpNwu5wsXbGJAQ38sw+n0i+TiggOVXN/N6hoVVGU3kgRUgRUoQUDZGC2raPogtr+Cv9MgjOXBxZFrql0EODeTylOpoR4gqjqjiQIqQIKUKKhkpcae27wbkq5SeuycOQ3QOPEIcPc/JKj8UXvW2UlQZShBQhRUjRUDFhsZ50z1b+3TFdMUAnjEB6944JU0ZfJxS2+mZVvGi0lQZShBQhRUjR0LB383vtmzDulH3RuZsPxUr7TewgxPstuTAP4pNQqaooSd74/mOGuFMNpAgpQoqQorFx4MCBX59y8XwvsbgxyIlXTOj9pm0R4vvx9rLIPWVorX9mrrKpU9LY0fcPo69EkCKkCClCioaArX/Sz1TNPVuSS+qvr2b6DUjv3pnG9D+feaRd9eIrZSwe71mjHh1CipAipAgpGgrm5uZPmXt4POUvqjx+IqFwaJZjAmab3iNTvl2QvzVUOCSublXwqqufRS2CFCFFSBFSNAAIIRPiFXWxVuHi8gWuyW10sTnE9+N9Ep1Is/ZiJgkQV7Q784v/Zr5z3yuoRZAipAgpQooGQGxRrf1KH17qSl9e9xznJDINm4D/aF9E28X6gCzikV1GJDUtZUWajhksFutx1CJIEVKEFCFF/WOCiYnJk8r6y79r6x2IvygqT/zcOz1hhS+v/QMHLl6V/thrUuYh4QOHhOFVfhlXfITKK8Kq5gsXuJmzLwYHT0aVghQhRUgRUtRT8upapiWXNtR/yclTL3BLJh85JWgniUB8P54lnmnENqWIXMgpd13ztdvvNlnY/J4ZGT6P2vQATDrLSad7A+pqmKcc4sP/ESnacup09bonfcMhu9gi4sW/uxQ3BwuG6Osenbx2JqsvZN5ViltDchau98/S2fpCRw1mQXyyOehuUhQepdtX6XJ9n/wNB1JkaOnqnaNs7sq+ICzPWuaTVrTch0foK1II7+4P4LTu0O+FFuwcEllQQ/zF5Vu+9mBPXb7F8jXUphHiklmc7pJZQnQ1IVIVEVe3/kCKHlLpROb363T52mOLaom4pvUHUowsbHiDqbhDblmlOnvtodIqEl1Y+wMpxsjqFrLzqnX2ul2zSkh4fjUJL6j/gRSZv89R5smZ6HKdcckoMVop0rMQJTUtvkfi8n12XhJl2URJyDrmAWwmdqK569scepDyfNdksjMsh5xJlpGlnulnDnPy1hc1dqyv0PS8CLs97KuJ2tbNeXVttrqaUk27rbqrf9ed1y2Vkqfy6y5/qcvXXt7aaavp7De989qV6u7fKJs6TxfodLl3nK1o6pp057Uzje1vSk3nWV0ud3p9tIx/cO3NnbPlje22unztBbWX1xpT/1PR3LU6sbTB+nhivvURTr7/6SSZVoT0hIbJkN8PllLQ2bXLmFEz/TRzND5f87k3z9Y+rdg2tbThLK+y5S8wGgAA6AmEkMcbO3tnpZdrPrFPkX8yc++5eaG5qsrzvBJiESYi81ySv32NDAHS+QZ0veV81xSy0pen/SSwKZCvWeCaGnsoRsqJldVyKlq67FGrAABATzji4THxuLPX9m0nHHeZ7ju962Ry4W4vQVnHyUQZ2RYiJPOck7Sjn+++p+rZqG2BWwqh3zoXe6Zpt5O7mQ/uslaS/vmZDgm3/blPPVK1E9o2BmRT4RHrCDE5GCOl/71Lc10SHdb4ZTrsj5I6BEtVDtLayw5N3QMbUasAAEDHKahpfl9Y3Xw4VKo6/E1y0WELtujwMt/0w/Pdks8cjsu/ahGWQ77wy9C+EjWU5RN0RxgvfhmxS5W7WEdKjtKZzTfDCO8oI/jbMs2Oe/QT19Tb/twutuioXbriqCe/9KinUHk0Q9l4NL+29WhBdcdrBlM5rK2P/MbS5sDSzZY2CIIgep9NFtZLF2+yWLpo/Y3MXb9t6fvLNy39l+mmpX+cu2rpIpbLUsf04kD37FJynFtAdrJztDOX6Sjqu5mR304MMZxNtLUTXIakNa1RFW1tv8dj0T1QtrRPlTe2EU5RrXbmIYIgiD7nUn4VceQVkzPJRdocY8S3LVRI6FrVm68Jby7jmfTd0pI4g54k84FDAiN/Ubs5W/pLWO8++GQrpzqkK7CwFEEQxEBDvwUmFje08wqqX4D17oMHI0X7NEgRQRDEMM8fjNOOklt7B1o7OgikeD92sqVTt4QItHvOoQIhCIIYVua6JJFzqfKSmPy6//cYzh+8P9vYoql0PQmkiCAIYnhZ5Zc5VN7alUoIeQLGgxQRBEGM+tSJbaHCfJafHw7lhRQRBEGMO3SuSLBEJYXpRsAsl5SpHzologIhCIIY3NrElAFL74gpMN0ImHI2dioqEIIgiGGFnuF4JknWt8HmzC9gOkgRQRDEiEeJ8dpzXTWdvX0+Pj6QIqSIIAhi3MswDsVI67glDZNYLNbjMB2kiCAIYrRZczGTZFc2ldMzXGE5SBFBEMSIvyUmEqtLoqqmrn4rrE0cIVXqjlcDxZWHcFo0giCIYWTtxSzinFGSDMM9BPLGtg1RhTU4NRpBEETPQwc39PxHmyhJfqm60wyGewjy69o2XMqrIhgpIgiC6LkUbTlkT6SE+AqV52E3SBFBEMSoQ89MdEwvFufXXl4Du0GKCIIgRp0Vvhlkf4x0C8wGKSIIghh1pjCxicrtiVM0rIXZIEUEQRCjzoeOCcQ8KOOEKZuNJRiQIoIgiBGPEs/FEbMgfkd4Yc0OWG0UlmREFlRjSQaCIIieZoFbCt3BxgdGGwW6B66sFaqarkCKCIIgehim7/4yNu9qbFGdO4w2Ctix2c/ticxdhMqFIAiib+sS6YxTHrGJEB+xcAp8HkbD3qcIgiBGm0m2HHKeV0wSixusYTJIEUEQxKizxDON+AiU5/Jr296CySBFBEEQo16X6JFdRsJyVfNgsVFmhQ9v6lKvNFQ0BEEQPcjUc3Fka4jwqku6fLGFhQW+JY425sGiqesDsrVrXVDhEARBdDsz7LkkqaThalaFBq9Nx4JtbNFUsyA+pIggCKIHM05X+mYMKtRtx9Xd3b+BwcaAfZHSqZbhIkgRQRBE11+dMnHiFXdHFVS/AHuNES48xVTblCIy7Vw8Kh2CIIgOZ2NANonIyvdis9nPwV5jBFuqmuotUJJpdpAigiCIruYjp0RyIr7AzvyE/csw1xjCUzZOjSqsgRQRBEF0NLR/3hclIaz4gv+DtcYYRWP71MwKDZluz0XlQxAE0bU1iefiyDzn5KsceV0Or7LlL7DWGKPp6v93YUOberpd/HVUQARBEN3KB44JzCgxt3NPpOwlGOvRMGFvuOh15mmkHxUQQRBEx7Zz80obrm7r0Wh6el6Erh4RK4PSXl19IaN/KpZlIAiC6Ew+dU8lwZLKyqwKDRXiBNjqEWEdIXh11yVRPybbIAiC6Mi3RCb7onIHewevpBFCHoepHiHegpJXPbLL+k0w2QZBEEQnMtOBS7iKWiEjRIwQHzXxJVWvRhXW9NObgMqIIAgyvqH7m5oHCfr2+8T9CYYaB0rUHa/m117u/9AxARUSQRBknJdg0LMSxTUtvadcXX8FQ40DarV6YkZ504ppdnE9qJQIgiDjl/muKeRsqrxZ1dq1wsPD4ykYapyY68R9ZoF7SttkVEoEQZBxCX1b98WFjOLjQQnzWCwWJteMJxbcimesLonb6NEkqJwIgiCPNpNtOcTykogIKpsyYCQdgFtR8YxTRnEbvTGooAiCII9SiHFkrX8WPRYqsbGt+30YSUekGFVQ0zYJUkQQBHnkW7ntZOfE+ggqZsNGOgKPkCcTFA0h2NUGQRDk0WYdM0q0TVNYwkQ6xiq/zLcXuKWgkiIIgjzCUaJDenF9ZVPnMlhIxzidUvT2YU6edp0MKiuCIMjYzzY1CxJUsvNqPoOBdJCU0vq32XlVZOo57IGKIAgylqGfqnZdEhHvHGUA7KOjlDV1/pFX2iia6cAdRqVFEAQZu9mmn3unk8DcSlVT58BB2EeHWemX+foyn/QhTLhBEAQZm8y05xLXrFJNVrl6C6yj4xxPLnj9aHz+0AycmIEgCDLqoUdC7Y/OJY7p8s/ZbPYTsI6OI1K1vJ5Rrh76yCkRFRhBEGSUhbglWECKGttKW3sGZsI4esDAwMCrzd0D8kUeqVcxCxVBEGSUviMymeeSNCxraCspa+3+H9hGj/ArqH7hUEx+02yMFhEEQUZtlHg2Vd6aqKj/L1hGz4gpK/tFtKy26VP3VFRmBEGQUcjmID45mVA0j+liJ8Ay+rY0o7X1F1Wt3U3LfXiozAiCID8x812TCK9cTVQt3VNhGD2Ex+M9GV6gmrfaP1P1gQNmoSIIgjxs6KTFILGKKBo794nF4l/DMHqMp6Asb6VvBio2giDIQwrRMaO4T6DSrHd1DfoVrKLntPT05+2NlBCcsWgsu2xwtJn0bW7dfWPSt783GeWEIA+0Y8181xRyIrGw3j+n/K+mpqZYj2gIeIfFTDnOLcj8xDUZFd3Ap4pT4a29mElOJRWSMGkVSSxukH+48/icTw+7zl11wvOAj1BJbKJyCdavIsj9Qzf63hiQXcDiFJhgYo2BEZRbGbr6QiYqugEL8ROXZMKKyyfnM4o9AnNVlgp1h2XP0JDpzTogbWx/hV+htvTMLtsXmqvqsbwkQtkhyD2WXpgF8UlCcX0qDGKAZFWqzcyD+KopqOwG+bp0lW8GsY6QSBJLGj2benr+l97z3KrW/xFUNZnFFNSaJSrqzZRNnWb9Q9dMCSHPdQ9eOecvrgjaG5V7/QOHBJQjgtzlO+KFnPL63sErVjCIgbIpMDvMBLNQDS6feaYRl4wSRby8djW9z4vW7Xjbws53hmd2+ZkgSSVx4pUQj+wyEq+oI6WaTqWUkKfon3Py9X1RVt+exYwYr9DXRChLBPn+takFWzyo1HSehTkMmKTievZCtxRUegN6vbPSN+N6gKQiPLOi8R88cf6/DniGme2LkhTRtanT7b4/T3Ma8+tF7qn1Z5KLjt26ebGsqelnZU0d9gdjpO1znJNQrojRZ65LMrGJlmgyKjXfsFisx2EOA6axo3f9pkD+ZaxZNJzXO7FFtdeSFQ3/R+9vnLzm6wMxueRuJ6N85pFGdl8SJf9Y3QiTqg5sCMxWYcSIGPV3eddkYhUuKg6VVu+CMYwCMuFccpFisWcaGoGeZ9q5eLLWP+tqQ0dvSl1n5583n/b5+6ZAQfAsp7tLbUNAFvHMLk2+V+1gxeXHrPDlYbkGYpSZ6ZBANgcLlCcSC63hCmNRIiETsio1cRsCsnsw4Ub/v3l48su6PHjK39B7a5+uiNgYmP2jQlvpl0Hs0uR874j4V2/WBxMTkydXbt75+uade19nKxRPc4vr3Cwvidro2iyUMWJUnyLOxZF1/lnkVHLRPpjCyGAR8vgyb17s7PNYp6bP+dg5abhM06Eubej+NcvP79lP3FKiTe5xoPQMu3iyO1x8/XLvQFl1R8cL27axfn4uNPWNaFntkLi6eSiv5vJf6feT6ee4tihfxNi+zc91SSKBksqhrv5BzDQ1RiILqmN2XRIRjAj0+slWYx3M+w0z+n+ioqU7fUdozuD9/p1ZzOhyW4jgGkde2yqpaWl1zSxpm+ucROzTFMPuWYq3aN3YHCz8Zr4bNnlAjCd0fa9tivx6W++go5WV1XMwhBHS2jPg5ZxR0kknauD7kX5moVtK42OETGCk+Hhh/eX8rSHCB/r36IxU+lQ83zVZO1GHzkrdHiYctmCLtFLcHir6ZqE7ZigjxjFCpO3gXKq8o6ChzY/FssP5iMb8bdE/p/LMgRgpeR+jRb3M+ovZ30mxYARS/MGEHUaKW0IEkCJidEKcx4wQQ6Wq3tKmzoO0T4QZjJz2voGTkYXVwzOxm4leZuq5uEYWj/fkT5UiHTlaR4iHD0TfkOJWRooLsJYVMfDMckokCYr64VJNx1onLvcZGAE85h8Z+VJYXtXBQ3S0iEaid5njnHRF3dkn7uzs/FV732A+I7aHehVOdzjyyC4b9hVVaKXIPD2fwYMSYujLmQLEFUSgal4SGMh9HjYA36FknpKYp6Xbdj5B9GTh/vlEklxS33XWI/g3PGXj1KPxBYKHWX9Kv6kUNbYPV2h63ipv7frqS05eJcoXMdTQo9MOxuQNBuSoVokq2iBEcDuBgYG/F1c177UKF19Hg9Gv0AeZ7aHCrpPc/BfpvRTVtFw6zi28Tp+CR7LW8WyqvDO/rnV5WWvrL3yFZbGbgwWYlYwYbL6Mzbt+Ka/axsLJCa9Mwd2Za2HxzNZQ/t7ZOF9PD3fg4A77Ccur2Pm1b/myuS/GymudtoQIHnhLK+sISaMbr/Q1Nl3W0dyVbBGW04e3BohhfoOPJ558JYmW1S5dt471LHp+cE8iC6vXf8XJu+2UdkQ/duGgZ2RmlGtyGtv7pwgqmv8cU1QXaR7EJzPtudojpeiob/LZ7/P+WY52ksFXsVJi7RW9lFvR9nzP4FCkfZqiZ6F7KsoVMcjdn5wyiodiZHXL11lavoAeH9wXafXlN88kyUJwgob+ZYYdl9hE5ZKk0sYEZrT3cWFt+9Td4TlbD8XmptpEScg6/2zyuQ+PrPDN0B6YejS+gLDzqgaCxBX7pKrGV5q7Bzwv5JQPfO6djm/LiMGFLrs4kSi7HFNUsyNJ1vQz9PbggXHnl205wnSYWMyvn98X6Ug/urA2NrO06W16P+Pk9YsviCqcD3PynLeHCZ0tL0mcTyQUOnOK6pw7B6+cbSHk58Xqjp0RBTXXTb3SyUi+RSKIPoRuZfllbF5jnKLhmFQqfQq9PBgRFU3tC2JltXlYo6a/YrQKFxEPfqnzYjOLWat37nvlbvfZ/MiRiTv27P8gubjhwyBJpXqJZyrB5vCIIX5D3HlJ1MZV1NmjdwcPDe0o2XlVdz2PD9H90G+IdAu3gzFScig2L9z0dMDWubtPbl2y7/TWT/ee3jpj+/GtR+MLWC6ZpVe3hgq1IsWbAcTQdqr52DmJeUAU93GK6najVwc/ia7Bwb9UNne774vKHcbrNMPYtYN+K6STcVb5ZZBF7inaBx6IEDHQXZ60387PZ5So44rqD5uy2U+gVwc/mRh51X9HFFbHznNJuoKGZgCjx9tmniKI4b4uXe7Do0JsqGjuPIueHIwqRzjSiVYR4nZ8a0IQRB+2baO7OXnxy5rLmztt0YODUUetJhMFVS11c5yT0OgQBNHpb4hLvNJIbFFtT7mmcy96bzB2k25KNTMc0hXXMVpEEERn1yG6JpOwvCqi6R5Yy2azcUAwGDvefffdp04lyT6wjhBfnW6H2ahjHRN7Lj35Qrv7BiY5Ich92osDl6y9mNkSIlFVNXf37zU1NYUQwdjTPTj4RktPv2a5T8bwNOx2MurrCukRTR85JZLZ55O6dl0SNUcU1DTbpykGV/pmYGIMgvzonr8JZG+kuOM4V7YUvTR4pLBYrMcVLS2/TSqtb/nMIxUnafzEfUrpDDn6cMEI8cqWEOHQ+YziIWFV85UkRcNaU5bLz1ku7J/nVrdGHebkXcNJFQhy94dJt6yyK17ZpSYmJqwn0UuDcRFjkEj1+qkkWSkjRoxg7ruA/mY42g3W6WtRulZwd4SEacylJF5eR6zcI+f8e5nZG/PWbH/DbPeBN2xsbH5xs7xPeAS8vCdS7E4nD6CsEeSWfX6ZtuSQrhiKk9VNW7duHU66AOPLujNek764kMn/AKeyf7/271v5acP8M30VusKXRywvicjpZBmJKqwhicX1iVttfWaZrDSbtdjMcpaZ5Z5Zs2fPvufGxBxZ3cmTiYU4tQRBvm1rc84n0hEiEVY177GwsMBZiEA3iJPXRW4KzDbqBfB0EgzdQJt5QCAWYTnkYKyUnEmSkaXeaac/cU2xMAsWWBznFloESystKlu6LHoHrn440nLOb2ib7JpV4k9/DkaLiLHvUrPMm0f8RRWksL7NsbKx7Q/oiYHOkCPJn8Upqs9f6Jaq/UZmCJK7dbcX+qpzgWuydmeM9QFZZG+khByIkZJzqXLinFFC6Abai08FbPrI8sSmRdanNq1n2W+y/sZ50zFHj00nnS/+ejTLOrlEvdovp0I7CkXniBjlNoWOCfStS8ehWOk2Fz9/Mz82+7fohYHOwU7NestHUF63lH7zesAOmwqU/nm6Byf9LjnDfvRnstJjYpb78sha/6zbsiEgmxyLLyBfJxRqc4KJt0BJQnNV5FJeFYkurCFumaWb//DxF9P+yOSdReum/Xvppmkzlm+atmidxbRFmyymrbPYO22r1d5p+7/66t1HVc5u/pEvXRSWb/7iQgY6SMToYuqdTjyyS4tDpOX/ofMa0PMCnYaraFh6PL5AvvQBJ4PQWZdrLmZqv7F9GSN1mG4Xt3GK7ejmE5ekjRuC+Bt3sIW3ZRdbvNGdX7bR55akljRuFNe0bMyvb9tY0ti5sbKp5yWdHJlXN/3HJbOEYDkMYjRbtjF1/XOfdBIkrlTGyOoWorcFeoOPQGm2O1yiPX/xfmKku+IsdE8hF0XlpKSp07Opc+CPKMH709/f/0pqaWOidt0ilmggBp4PHBO0b3YCJZV9JeoOS/QAQO84zi0w2xYqkNN3/w9S6akYvfhlRFLdelitVk9ECd6fMIlq1qFYqWImZv0iBjyRba5zEtkYmK2xS5HH9w5cCXHicjHDFOgnzFOdmV2aXPuU96CvR1jx+dcK69uO2l10+x1K8P44ZRZv/oojxaQbxAB3p+GS7aFCuoZXEixRrUdrB3pP35Ur/6pq7fJnxeUTkwecQEMn2pxKlJHI/GqfWFnNP1GK90ap6Xovvrg+gH6XRUeKGEro6JBOfhNWNUcrmzo/REsHBkPP0NBbWeWavPX+WdpJNQ+0oa8dV7vcwV9S7sFRNPwdpXhvYgprZgaIK8iDvqpGEN1de3hjra91hLg8XamO6B64Og0tHBgc5c0di/1FlQ10S7MHPW5q0jcc7VpAnxxliIXThT+jFO89Iq9t61HsCBVex6kliD5PpvnCL5N4C8pqsyrUVmjZwKApa+7cElNU2zXfNZmM5BzGZT7p17/i5KVtP+n86yNHjmACzo/Q2N7/iqyxTbPIPWUY51wi+nYYMN0i0jxI0CZraGvt6B1YTQiZgFYNDBoWi/V0ibrjs7TSRvLx+cQHFiNd3L/ANeUqW1rV1dU3dAwl+aNMiFdU/9Yts7SRblaAzhbRm8OAXZKJr1A5dJ5X9KaFBet5c3Pzp9CcgVEwd+7cZ5Sarn/zKzXK9f7Z16Y/4MJzKtBF7qnENaukp0jdccnB4+IrKM27i3HLEduX9kZKVPq81R5iHN8O6WSa9YH86qwKjZR5YH71MexOA4z2VWpr6y+UzZ1Fa/2zro7kVR+V6LYQIclQqkvSlPV0yQZesdyF2vYe4RKvdO2GyeiAEV17VTrLKYGs9MsY9hdX1gVJav+EFgsAgweHM5Ff2aQa6as+2tF/6p46HCiubLgoLv01i4XDRO+El5PzWm5N6+DH55PQESM6lTnOydfPJBddqbrc3ZSv0byIB1sAboGuseMp1eQTl+QRnaxBX73Mc0kePhqfX6vp7M3ER/nbMTU1fYJfoflbcK6q7UG22kOQsd6VZop27WEyYeep8qydg17dfejQHyBEAO6AHgja2NG3KKequXtzsICMZLsy2sg+cU0mp5IK+8s13RH19eQ5lOjtYvTiK6fZREnLaTlBjMi4HMNmyyHzte1URkRVzT3RacL30ToBuAfMKO+Z7oErG9PL1WoLdo723MKRNDx6fuOJBFkfR1brxVGqf4MSva1sJ3ydKFuyOUiQT0fj6KiRRylE+jCmXWssVMp8BEpzpp2v5/F4+NwBwIN03gHBwZ9aeUSu3RoiyJ8xwgXoM7VrnPjX90XnXipqaPN7mBPtDRmhShNxOllGPsSON8hYy9D2xnf/TYF8cjJJ5n0qJGHdeS/fD9AKAXhIrH2j3zqVJKvXfgsb4SbXHzklki3BfBIirayW1bYuQGnegJOc/HpNW7ePbUoR+cABO94gYzMynMS0V7qd4wVROSmsa3P3ZbNfROsD4KcPGyd4ZJV8ap+mKFl9MZNMH+EhuvT1Kz2R/uuEQkFla5d/z8DV6SjUxx7rvXLl/4rq25IsL4mwRyoy6lnll0GcM0vIpfyqC/ElDat7h4beRqsDYBSJk9dv9BGW5VmE5WiPkBlpIzX1Tifu2aV0TWOEtKF1Jkr0sce6B6/NjyyoqaSTmh50c3YEuVfophpfcfKufcnJdxXVtpxq6uqfhJYGwBihbOo05xTVyPZGirWvRkf6Oof+O4c5eSRIXBklqm5a1DvUa/RPr5VNnYd8heUV6wOyH/icSwS521mHdHS4iy1KF9e0XJJUt/wWPRYAj+K139DQiqKGNvmmQH7jw0wUod8lV/ryiLdASZTNHQH+kZEvGXuZljd328QW1TZsDRFoD3ZGJ4886DIo+nlioVvK1SWeqcXBuSr5gbPub6GXAmAcCJVWzbZPUxSu988e8bKNm1vEUQmczywOPxYQ/7nHhcDZxlyePQMDM5mReJp1hJiYYPINcp/Qnae2MO3HKb24I05e55Mka/oZeiUAxnuE09Q9P0OpyTwan0+W+fDISDe9ptPF6SbEeyIlJKKgpjpAXL6ivad/uZ+f37PGWJ7dg4P/k1vTKqJixMkayN1GhrOdEgl91f5NclEdV1Ef1D8wdBo7SAGgSx351avT6jt6JXZpculyH97V6fbxI/7WSF+p0n1Bz6XKibS29Qo7TWC066j6hoYWJZU0iNf5Z5VBjMjNbRTp8W5M+yI2kbmdYdIqcffg0DfofQDQYaSq9l/yytWVX/hlXJv+kN/Fpnz7WuhCTnmFEzf/RVMLixdZRnp8zVex+TMOxua2YYG/cY8MZ9hp9xXuPczJa84s1zR3DQyFobcBQE9Qq9UTVa2dVVaXxEP0O+PDnjg/w4E7vNI3oy+qsLbdQ1DxZ1NT1tPGJkf69/UWlPzvBWF5z0hn+iKGMTqc45x41SYqd/CCSHl0sqnVc6ZWVs/R/YnR0wCgR8w1NX2RU1T9Jk+plu6JEA8t9kh9qIk405hO4SOnBLLmYlbzRVGFJlZes8f8wJE3J5uaGs1G43QT8cyypj9mKNUCs0D+0Ax7TMAx5B1o6PaInzLtZaUfr/J8RkmJv6hi+6YTDv9tYmL6c/QsAOg5hJDHe4auCDjyurodYTk99DXglJ/QYSz1Sic+AiXxz6lYMHeVxe9XWVg8b0zlWdrUIVhzMbNhlmPi8BQcVmxQr0g/YGQ41yWZ7L4kbpJUt1Tl1bf8BT0IAAaIubn5Ux4eHk9Vt/U4uGeXDXzsnPSTOnT6SmmBa/IVuzTF0KW8qhMWTk7PzLWweIb+HGMoy4Mx8v+2S1Vo6NmVUyAU/ZYh0w5m3FhjSGeSDhY1tg8KKponm7JYTz+Gcw0BMGwsWawX3Dhpv4uR1YhsIiXa16IPL8Y47c4v812Tu7aFCOrD82vqu/oHXYyhHOl3RnZh/e84ihqlWZCATMdCf70M/ZxA1+hGy2pJTVtPl7S+6W0LG5vfs24IEQBgLKzbYfX2xm+8p7A4Bc5W4WLt7i0jPXnjVjnOckwkpl7p9Iy4Fn9xeXZFS6eXMZRjRUvHPwrqWrMd0xVkjnMSDizW+eObONrMPp9EDkbnkkBRBX+H/YUpa3fsnXLo0KFJjAxxpiEAxownv/hvobkV9u5ZpeQLv8yfPOLRLmj2zyI2UZKWzSF8v9iiOr/23oGThlyG9IzKMGn12i9j89Lo5Iyp+M6ok5NnZjklEPNgPnFMLyaRBdUlx7j5a/JrL+N8UQDA7Vy8yP5dYEzCF6mlavaFnHKyk51zfeZPmF05+dvRI52wYBbEJycSCjtPJhb6pysbvb0Thf/12I3vNAb3reZUYMR7HHmd/EtO3vX5rsmQkQ6EbmDxuXf69TNJMnIuRXH684O2X5w47/VFQHDwR2j5AIB7cvDgwZd3WNn8S1zTtDK3poVOOtDubvOwr1Vv3Vt1rksSWeKVNjzHOamQFZ8v4SnVksqWrjmGVoa7Dxx4g+Ue8i+fHOVpuzQ5mefy08sPGdmOTPTXW4IF2jMMzybLrTec8fnX6s1W/7KwYD2PVg4AGDEdHeSFtp7+ZWypamVUYU3b3kjJd+c2/tRvZnTN42ceaYSeW7jclye0ic4NjcivDs0qVy8xpDJMq2j+M69M/TWnqI6YBwkgxjEVIf01hyzzSSdH4gtIWF7VwMnEovXsvOplMWV1/w8tGgAwKtD1jQ0dvdYXheW2Xvyyq1/G5pHFjNBGa6YlndzDiJHQTbe3h+akL3BNPnw8voDFU2pYjd19i/S9/DoHBv6k6eo74iNQBn/FyddO+YfIRi9027XPvdO1m9jbpymu7I3KPROQqzrS0N53kKm7z6IFAwDGhHZCftk1MBSUVtYYti1EGGYexFet8M0YNTnSJ30aOntza4iQOPKKSXBuFe9MkmzpN8lFpnFFtaa1bT2mPj4+v9DH8lN39r2bVdHM3sHO4W4NEVz/xDUFk3Ee+gDfBLLEM41sCuKTXeEijVW4OCymqDasoaM/oLWV/AKtFQDwyMmru3zIPassb31AVu9nHqmE7gdKX4uO1jehSUxM7OPJMmYUcDBGSryFSpJRriEs/7jF05aZ/3OxueU/11vu/efW/ft/pU/lJqvp/KOkukViFS7J+8wzbRBrGx9wlxnHBLLQPVV7JNrmYEHrqUSZNKW0MY8ZhZ9HawQA6AyNHX1H4uT1gfujpYHrLmZl0Jmmn7iM3axLet7jhoBscpiTR5wzisnxhALnBUc8Vi61ObNqw1H7VfvPuq1y8rmwyj8o6GNdLjcWIY8HS1UOK315bGbEc4VOZsLI8fZDe+maV7qofkswX8aIMCBIogosVrcHdg9cMUPLAwDoPFkVjf/kKuounkiQZdhESciGwGzt0/2UMZxcQf93jksS2cj8rN3hYnIqSUZ8c8pJWF515cenOWtsIqVrzyTJ1l7MUa7NVGrWSmsvr23rGTLVlTLjKVp+Hievc193IctvczC/YbFn6qiMuPVtJDjL8cYrUaYMyOG4vCHzYEHIyQTZhcxyzYWypu5FaF0AAL2ld+DqrKqWbmFIbpWQkWMuI6xrtMP7aIwO6f1OkN/uVHJzlied1EJnuO6PziVnkmXEX1RBwvOrSXZFU6uvsPT9tz9bM/nfphsmz1ixefKcNdsnz9+wffKK7ZaTN1jumbxZmwOTLffv/9OjKjfmgcL+q9g84WfuqU0mDlyDliDdWm2eS7L2dejai5mDpl6pOYfj8oVx8lphz8CV5E5CfoWWBAAwOHp6yEvdA0Nl0bLaut2XJI0L3VOuf+ycqP1GNHWMR0STbxPm7dKkG0DTDnljIJ/siZCQU4mFxJGnIKHSKpJU3EDSlWoqT5JZoQ5axfL6/e/mrvou/1m8adTyDpNb/9smNk6/P5lQGEivzVBGjNrDeRkJ0tEgnUi1wC1l6HPv9LqTSbK6zApNnaarP6eCEJxLCAAwCiZYWVk9t8DcfKJI1fJ6c3d/R4KifuAYt3CA6fgHmBHDNSrH8ThlgoqRhn7LowKiy0Om23HJDBr7G2H+v6vvn4vruxnmWvvMgvh9W0OFPzmbQwR9q/wy+qbc8t+nYf75qj4fR3WjTL8tT/t4+h34itUl0YBHdtlARrlmoPpyt8Dcw2MirRPm5kcmslgsLJ0AABgf9JDeQ4cO/WH1zp2vzFpt/srq0x6vBEtVkfZpcu2ECrrjzaTvRnM6vDbOnjtq0efZp5NvmS18M3QW8saAbGbkLSNBkkoirGom2ZVNX08xNX9lvvnOV8x37ntl717Wb9EaAADgLnz00cL/967J7DetT55/U6BqOp1a1tjska1s2hYiaKLHUdFZmfRAZLo2bRqWL4xL6KiPjqDpd0D62pvODJ19Pql/nktyk3mwoOlsirwpRKpq4quay5JK6v73tckmb9J7Onn2gjdnL1jyJvMw9F+o6QAAMELo+YT08N4b8XhK1nB5bWlTZ09kQU2PXZqiZ2Ngdg/TMfeafP9qE8sYRll+N1553ihfuq3ftHPxgyt8eT17osQ9tslFPf7iih55Y3tPTVuPpwmL9eS7392vG0EtBgCAMYJ+i7S0PPjyF+aWL3/8hfnL7y42f3mXV/g76Ur1ED3J4zi3QDuF/6cckozcyCynRO3+rF8nFhKHdAVhHkSIuKaFxCsajpvbe7w8jSl/eg8WM/fCnLkn9KBq1FAAABhn3n3X/KlNO63fXWa2670PV217773FZu99uOvYe+H51ZUXReXaGaQHYqRkzcUsQo9uurk7zuTb8v0aR/0/MPfus2tv/XvT75bzXVPIuoBsYsHOIaeTZHSfUBJVWEMSFQ3XzmcqFv5pziptWc5Zt+29BUxWbbN+b5v1/vcsDx58GbUOAAD0jIL6lnlppY0rwnJVK75Jlq3YHCxc8dHRsBWu2WXeQRIVcc0sJUfjC7Rbxm0K5BO6b+tiz+83Nr9dLrdMIrklYz5h5c7Y/jC3LnOgu/ss8+aRlczfZWuokOyLkmgfCM6myIlndhkJzlURx3SF6z+Ohq/41D1txbYw4YpDsfkrvITlK5jfW5Ff17pC2dS+XNbU9DPUIAAAMAI8LoT+2dnbf/kJZ+/lVqedl2855rj8s32nl8/eeWK5yfZjy/+27uDyuV/7LnPJKInwFZYPe/GVw04ZxcNfJxQMMwLVZl9U7vCOMOEwI9LhlaOcL/wyh3dHiIcPxOR+9/NojsTlDzumF2uv52bO84pFc4/6Lntj9b7lNP8x+2r5hzuPLZ9jdWL5soO2y82O2Wn/fgft3JafdvNe7uznv9zNL+Q11AIAAAAjYtvevb/dumfPO1t37XlnDZMlW3e9s3DT1htZs/WdD5n8Z8mmMcmcNVu//1nfZsmmXe+s2Xrjem5mu7X1q7hTAICx4v8D6Dpdbb1/S5IAAAAASUVORK5CYII=;" vertex="1" parent="1">
          <mxGeometry x="990" y="260" width="95.63" height="60" as="geometry" />
        </mxCell>
        <mxCell id="krXXUxlrRhLwoEf3vAPq-29" value="Docker Hub" style="text;html=1;align=center;verticalAlign=middle;resizable=0;points=[];autosize=1;strokeColor=none;fillColor=none;fontSize=13;" vertex="1" parent="1">
          <mxGeometry x="980" y="320" width="90" height="30" as="geometry" />
        </mxCell>
        <mxCell id="krXXUxlrRhLwoEf3vAPq-62" value="" style="edgeStyle=orthogonalEdgeStyle;rounded=0;orthogonalLoop=1;jettySize=auto;html=1;" edge="1" parent="1" source="krXXUxlrRhLwoEf3vAPq-35" target="krXXUxlrRhLwoEf3vAPq-60">
          <mxGeometry relative="1" as="geometry" />
        </mxCell>
        <mxCell id="krXXUxlrRhLwoEf3vAPq-35" value="" style="shape=image;verticalLabelPosition=bottom;labelBackgroundColor=#ffffff;verticalAlign=top;aspect=fixed;imageAspect=0;image=data:image/svg+xml,PHN2ZyB4bWxuczpjYz0iaHR0cDovL2NyZWF0aXZlY29tbW9ucy5vcmcvbnMjIiB4bWxuczpkYz0iaHR0cDovL3B1cmwub3JnL2RjL2VsZW1lbnRzLzEuMS8iIHhtbG5zOmlua3NjYXBlPSJodHRwOi8vd3d3Lmlua3NjYXBlLm9yZy9uYW1lc3BhY2VzL2lua3NjYXBlIiB4bWxuczpyZGY9Imh0dHA6Ly93d3cudzMub3JnLzE5OTkvMDIvMjItcmRmLXN5bnRheC1ucyMiIHhtbG5zOnNvZGlwb2RpPSJodHRwOi8vc29kaXBvZGkuc291cmNlZm9yZ2UubmV0L0RURC9zb2RpcG9kaS0wLmR0ZCIgeG1sbnM6c3ZnPSJodHRwOi8vd3d3LnczLm9yZy8yMDAwL3N2ZyIgeG1sbnM9Imh0dHA6Ly93d3cudzMub3JnLzIwMDAvc3ZnIiB4bWxuczp4bGluaz0iaHR0cDovL3d3dy53My5vcmcvMTk5OS94bGluayIgdmVyc2lvbj0iMS4xIiBpZD0ic3ZnMjE1ODUzIiBpbmtzY2FwZTp2ZXJzaW9uPSIwLjkyLjMgKDI0MDU1NDYsIDIwMTgtMDMtMTEpIiBzb2RpcG9kaTpkb2NuYW1lPSJ2aXN1YWxfc3R1ZGlvX2NvZGVfbGV0dGVyaW5nLnN2ZyIgeD0iMHB4IiB5PSIwcHgiIHZpZXdCb3g9IjAgMCAxMDQuNDEgMTA0LjQxIiBzdHlsZT0iZW5hYmxlLWJhY2tncm91bmQ6bmV3IDAgMCAxMDQuNDEgMTA0LjQxOyIgeG1sOnNwYWNlPSJwcmVzZXJ2ZSI+JiN4YTs8c29kaXBvZGk6bmFtZWR2aWV3IGJvcmRlcmNvbG9yPSIjNjY2NjY2IiBib3JkZXJvcGFjaXR5PSIxIiBmaXQtbWFyZ2luLWJvdHRvbT0iMCIgZml0LW1hcmdpbi1sZWZ0PSIwIiBmaXQtbWFyZ2luLXJpZ2h0PSIwIiBmaXQtbWFyZ2luLXRvcD0iMCIgZ3JpZHRvbGVyYW5jZT0iMTAiIGd1aWRldG9sZXJhbmNlPSIxMCIgaWQ9Im5hbWVkdmlldzIxNTg1NSIgaW5rc2NhcGU6Y3VycmVudC1sYXllcj0ic3ZnMjE1ODUzIiBpbmtzY2FwZTpjeD0iNjkuNjA3ODQzIiBpbmtzY2FwZTpjeT0iNjkuNjA3NTcxIiBpbmtzY2FwZTpwYWdlb3BhY2l0eT0iMCIgaW5rc2NhcGU6cGFnZXNoYWRvdz0iMiIgaW5rc2NhcGU6d2luZG93LWhlaWdodD0iMTAxNyIgaW5rc2NhcGU6d2luZG93LW1heGltaXplZD0iMSIgaW5rc2NhcGU6d2luZG93LXdpZHRoPSIxOTIwIiBpbmtzY2FwZTp3aW5kb3cteD0iLTgiIGlua3NjYXBlOndpbmRvdy15PSItOCIgaW5rc2NhcGU6em9vbT0iNi4xMTY1MzY5IiBvYmplY3R0b2xlcmFuY2U9IjEwIiBwYWdlY29sb3I9IiNmZmZmZmYiIHNob3dncmlkPSJmYWxzZSI+JiN4YTsJPC9zb2RpcG9kaTpuYW1lZHZpZXc+JiN4YTs8ZyBpZD0iZzIxNTg1MSIgdHJhbnNmb3JtPSJ0cmFuc2xhdGUoLTAuOTQ5MTk1LC0wLjk0OTIwNDM1KSI+JiN4YTsJPHRpdGxlIGlkPSJ0aXRsZTIxNTc1MyI+UGFnZS0xPC90aXRsZT4mI3hhOwk8ZyBpZD0iZ3JvdXAzMzYtMSIgdHJhbnNmb3JtPSJ0cmFuc2xhdGUoMC45NDkxOTUsLTAuOTQ5MTk1KSI+JiN4YTsJCTx0aXRsZSBpZD0idGl0bGUyMTU3NTUiPlZpc3VhbCBTdHVkaW8gQ29kZSAoTGV0dGVyaW5nKTwvdGl0bGU+JiN4YTsJCTxnIGlkPSJzaGFwZTMzNy0yIj4mI3hhOwkJCTx0aXRsZSBpZD0idGl0bGUyMTU3NTciPmNpcmNsZTQzOTM8L3RpdGxlPiYjeGE7CQkJPGNpcmNsZSBpZD0iZWxsaXBzZTIxNTc1OSIgc3R5bGU9ImZpbGw6IzAwN0FDQzsiIGN4PSI1Mi4yMSIgY3k9IjU0LjEiIHI9IjUyLjIxIi8+JiN4YTsJCTwvZz4mI3hhOwkJPGcgaWQ9InNoYXBlMzM4LTQiIHRyYW5zZm9ybT0idHJhbnNsYXRlKDI2LjQ4MjUsLTM5LjQyMDEpIj4mI3hhOwkJCTx0aXRsZSBpZD0idGl0bGUyMTU3NjIiPnBhdGg0Mzk1PC90aXRsZT4mI3hhOwkJCTxwYXRoIGlkPSJwYXRoMjE1NzY0IiBpbmtzY2FwZTpjb25uZWN0b3ItY3VydmF0dXJlPSIwIiBzdHlsZT0iZmlsbDojRkZGRkZGOyIgZD0iTTM3Ljk3LDU1LjYxTDE4LjAzLDc1LjU1TDQuODQsNjUuM0wwLDY4LjI5ICAgICB2MjUuMjlsNC44NCwzLjA0bDEzLjI5LTEwLjI0bDE5LjkzLDE5LjkzbDEyLjY2LTUuNDJWNjAuNDNMMzcuOTcsNTUuNjF6IE01LjQyLDg4LjE1VjczLjY5bDcuMjMsNy4yM0w1LjQyLDg4LjE1eiBNMjUuMzUsODAuOTIgICAgIGwxMi42Mi0xMC44OHYyMS43M0wyNS4zNSw4MC45MnoiLz4mI3hhOwkJPC9nPiYjeGE7CQk8ZyBpZD0iZ3JvdXAzMzktNiIgdHJhbnNmb3JtPSJ0cmFuc2xhdGUoMTIuOTY0MywtMTMuOTE3KSI+JiN4YTsJCQk8dGl0bGUgaWQ9InRpdGxlMjE1NzY3Ij5TaGVldC4zMzk8L3RpdGxlPiYjeGE7CQkJPGcgaWQ9InNoYXBlMzQwLTciIHRyYW5zZm9ybT0idHJhbnNsYXRlKDAsLTE0LjUzNTcpIj4mI3hhOwkJCQk8dGl0bGUgaWQ9InRpdGxlMjE1NzY5Ij5TaGVldC4zNDA8L3RpdGxlPiYjeGE7CQkJCTxwYXRoIGlkPSJwYXRoMjE1NzcxIiBpbmtzY2FwZTpjb25uZWN0b3ItY3VydmF0dXJlPSIwIiBzdHlsZT0iZmlsbDojRkZGRkZGOyIgZD0iTTkuMDcsOTUuNzdsLTMuODksMTAuNTRIMy44M0wwLDk1Ljc3aDEuMzcgICAgICBsMi45Miw4LjM2YzAuMSwwLjI5LDAuMTcsMC42LDAuMjEsMC45M2gwLjAzYzAuMDMtMC4yNCwwLjExLTAuNTUsMC4yNS0wLjk1bDIuOTctOC4zNEw5LjA3LDk1Ljc3eiIvPiYjeGE7CQkJPC9nPiYjeGE7CQkJPGcgaWQ9InNoYXBlMzQxLTkiIHRyYW5zZm9ybT0idHJhbnNsYXRlKDEyLjc1MDYsLTE0LjM1MDkpIj4mI3hhOwkJCQk8dGl0bGUgaWQ9InRpdGxlMjE1Nzc0Ij5TaGVldC4zNDE8L3RpdGxlPiYjeGE7CQkJCTxwYXRoIGlkPSJwYXRoMjE1Nzc2IiBpbmtzY2FwZTpjb25uZWN0b3ItY3VydmF0dXJlPSIwIiBzdHlsZT0iZmlsbDojRkZGRkZGOyIgZD0iTTQuNjIsMTA0LjExYzAsMC42NS0wLjI1LDEuMTgtMC43NSwxLjU5ICAgICAgYy0wLjUxLDAuNDEtMS4xNywwLjYxLTIsMC42MWMtMC43MSwwLTEuMzQtMC4xNS0xLjg3LTAuNDZ2LTEuMjljMC41OSwwLjQ4LDEuMjQsMC43MiwxLjk1LDAuNzJjMC45NiwwLDEuNDQtMC4zNSwxLjQ0LTEuMDUgICAgICBjMC0wLjI4LTAuMS0wLjUyLTAuMjgtMC42OWMtMC4xOS0wLjE4LTAuNjEtMC40Mi0xLjI3LTAuNzNjLTAuNjctMC4yOC0xLjE0LTAuNTktMS40Mi0wLjkxYy0wLjI3LTAuMzMtMC40MS0wLjc2LTAuNDEtMS4zICAgICAgYzAtMC42MiwwLjI1LTEuMTQsMC43NS0xLjU2YzAuNS0wLjQxLDEuMTQtMC42MiwxLjktMC42MmMwLjYsMCwxLjEzLDAuMTIsMS42MiwwLjM1djEuMjJjLTAuNS0wLjM2LTEuMDYtMC41NC0xLjcxLTAuNTQgICAgICBjLTAuNCwwLTAuNzIsMC4wOS0wLjk2LDAuMjljLTAuMjQsMC4yLTAuMzYsMC40NS0wLjM2LDAuNzZjMCwwLjMzLDAuMDksMC41OSwwLjI4LDAuNzdjMC4xOCwwLjE3LDAuNTcsMC4zOSwxLjE1LDAuNjMgICAgICBjMC43MSwwLjMxLDEuMjIsMC42MywxLjUxLDAuOTZTNC42MiwxMDMuNjEsNC42MiwxMDQuMTFMNC42MiwxMDQuMTF6Ii8+JiN4YTsJCQk8L2c+JiN4YTsJCQk8ZyBpZD0ic2hhcGUzNDItMTEiIHRyYW5zZm9ybT0idHJhbnNsYXRlKDE4LjQ4MzQsLTE0LjM1MDkpIj4mI3hhOwkJCQk8dGl0bGUgaWQ9InRpdGxlMjE1Nzc5Ij5TaGVldC4zNDI8L3RpdGxlPiYjeGE7CQkJCTxwYXRoIGlkPSJwYXRoMjE1NzgxIiBpbmtzY2FwZTpjb25uZWN0b3ItY3VydmF0dXJlPSIwIiBzdHlsZT0iZmlsbDojRkZGRkZGOyIgZD0iTTYuMjQsMTA2LjEzaC0xLjJ2LTEuMTlINS4wMSAgICAgIGMtMC41LDAuOTEtMS4yNywxLjM3LTIuMzIsMS4zN2MtMS43OSwwLTIuNjktMS4wNy0yLjY5LTMuMjF2LTQuNWgxLjJ2NC4zMWMwLDEuNTgsMC42MSwyLjM3LDEuODIsMi4zNyAgICAgIGMwLjYsMCwxLjA5LTAuMjEsMS40Ni0wLjY1YzAuMzctMC40MywwLjU2LTEsMC41Ni0xLjY5Vjk4LjZoMS4yQzYuMjQsOTguNiw2LjI0LDEwNi4xMyw2LjI0LDEwNi4xM3oiLz4mI3hhOwkJCTwvZz4mI3hhOwkJCTxnIGlkPSJzaGFwZTM0My0xMyIgdHJhbnNmb3JtPSJ0cmFuc2xhdGUoMjUuOTkyNywtMTQuMzUwOSkiPiYjeGE7CQkJCTx0aXRsZSBpZD0idGl0bGUyMTU3ODQiPlNoZWV0LjM0MzwvdGl0bGU+JiN4YTsJCQkJPHBhdGggaWQ9InBhdGgyMTU3ODYiIGlua3NjYXBlOmNvbm5lY3Rvci1jdXJ2YXR1cmU9IjAiIHN0eWxlPSJmaWxsOiNGRkZGRkY7IiBkPSJNNS45NCwxMDYuMTNoLTEuMnYtMS4xOEg0LjcxICAgICAgYy0wLjUyLDAuOTEtMS4zLDEuMzYtMi4zMiwxLjM2Yy0wLjcyLDAtMS4zLTAuMi0xLjc0LTAuNTljLTAuNDMtMC40LTAuNjUtMC45My0wLjY1LTEuNTljMC0xLjQsMC44My0yLjIyLDIuNDgtMi40NmwyLjI2LTAuMzEgICAgICBjMC0xLjI4LTAuNTItMS45MS0xLjU1LTEuOTFjLTAuOTEsMC0xLjczLDAuMy0yLjQ2LDAuOTJ2LTEuMjRjMC4yMi0wLjE3LDAuNi0wLjMyLDEuMTQtMC40OGMwLjUzLTAuMTUsMS0wLjIzLDEuNDItMC4yMyAgICAgIGMxLjc3LDAsMi42NSwwLjk0LDIuNjUsMi44MUw1Ljk0LDEwNi4xM3ogTTQuNzQsMTAyLjMybC0xLjgyLDAuMjZjLTAuNjIsMC4wOS0xLjA2LDAuMjMtMS4zMSwwLjQ0cy0wLjM4LDAuNTUtMC4zOCwxLjAxICAgICAgYzAsMC4zOCwwLjE0LDAuNjgsMC40MSwwLjkxczAuNjEsMC4zNCwxLjA0LDAuMzRjMC41OSwwLDEuMDktMC4yMSwxLjQ4LTAuNjNjMC4zOC0wLjQyLDAuNTgtMC45NSwwLjU4LTEuNThWMTAyLjMyeiIvPiYjeGE7CQkJPC9nPiYjeGE7CQkJPGcgaWQ9InNoYXBlMzQ0LTE1IiB0cmFuc2Zvcm09InRyYW5zbGF0ZSgzMy43MjMyLC0xNC41MzU3KSI+JiN4YTsJCQkJPHRpdGxlIGlkPSJ0aXRsZTIxNTc4OSI+U2hlZXQuMzQ0PC90aXRsZT4mI3hhOwkJCQk8cGF0aCBpZD0icGF0aDIxNTc5MSIgaW5rc2NhcGU6Y29ubmVjdG9yLWN1cnZhdHVyZT0iMCIgc3R5bGU9ImZpbGw6I0ZGRkZGRjsiIGQ9Ik0xLjIxLDEwNi4zMUgwVjk1LjE3aDEuMjFWMTA2LjMxeiIvPiYjeGE7CQkJPC9nPiYjeGE7CQkJPGcgaWQ9InNoYXBlMzQ1LTE3IiB0cmFuc2Zvcm09InRyYW5zbGF0ZSgzOC42MDI2LC0xNC4zNTA5KSI+JiN4YTsJCQkJPHRpdGxlIGlkPSJ0aXRsZTIxNTc5NCI+U2hlZXQuMzQ1PC90aXRsZT4mI3hhOwkJCQk8cGF0aCBpZD0icGF0aDIxNTc5NiIgaW5rc2NhcGU6Y29ubmVjdG9yLWN1cnZhdHVyZT0iMCIgc3R5bGU9ImZpbGw6I0ZGRkZGRjsiIGQ9Ik01Ljg3LDEwMy40N2MwLDAuODgtMC4zMiwxLjU4LTAuOTQsMi4wOCAgICAgIGMtMC42MywwLjUxLTEuNDgsMC43Ni0yLjU2LDAuNzZjLTAuMzksMC0wLjgzLTAuMDYtMS4zMi0wLjJjLTAuNS0wLjEzLTAuODQtMC4yNi0xLjA1LTAuNHYtMS40NmMwLjMsMC4yNywwLjY5LDAuNDksMS4xOCwwLjY3ICAgICAgYzAuNDgsMC4xOCwwLjk0LDAuMjcsMS4zNiwwLjI3YzEuMzUsMCwyLjAzLTAuNTIsMi4wMy0xLjU4YzAtMC40NC0wLjE1LTAuODItMC40NC0xLjEzYy0wLjI5LTAuMzItMC44OC0wLjczLTEuNzctMS4yNSAgICAgIGMtMC44Ny0wLjQ5LTEuNDgtMC45NS0xLjgzLTEuMzljLTAuMzQtMC40NC0wLjUyLTAuOTgtMC41Mi0xLjYxYzAtMC44MywwLjMxLTEuNTEsMC45NC0yLjAzYzAuNjItMC41MiwxLjQyLTAuNzksMi40MS0wLjc5ICAgICAgYzAuOTQsMCwxLjYzLDAuMTMsMi4wNywwLjM4djEuMzhjLTAuNTUtMC40My0xLjI2LTAuNjUtMi4xNC0wLjY1Yy0wLjU4LDAtMS4wNiwwLjE1LTEuNDMsMC40NHMtMC41NSwwLjY4LTAuNTUsMS4xNiAgICAgIGMwLDAuMzUsMC4wNSwwLjYyLDAuMTYsMC44NGMwLjExLDAuMjEsMC4zLDAuNDEsMC41NiwwLjYyYzAuMjYsMC4yLDAuNywwLjQ4LDEuMzMsMC44M2MwLjkzLDAuNTIsMS41OCwxLjAxLDEuOTUsMS40NyAgICAgIEM1LjY4LDEwMi4zNCw1Ljg3LDEwMi44Nyw1Ljg3LDEwMy40N3oiLz4mI3hhOwkJCTwvZz4mI3hhOwkJCTxnIGlkPSJzaGFwZTM0Ni0xOSIgdHJhbnNmb3JtPSJ0cmFuc2xhdGUoNDQuODc1MywtMTQuMzY3OSkiPiYjeGE7CQkJCTx0aXRsZSBpZD0idGl0bGUyMTU3OTkiPlNoZWV0LjM0NjwvdGl0bGU+JiN4YTsJCQkJPHBhdGggaWQ9InBhdGgyMTU4MDEiIGlua3NjYXBlOmNvbm5lY3Rvci1jdXJ2YXR1cmU9IjAiIHN0eWxlPSJmaWxsOiNGRkZGRkY7IiBkPSJNNC4zOSwxMDYuMDdjLTAuMjksMC4xNi0wLjY2LDAuMjQtMS4xMywwLjI0ICAgICAgYy0xLjMxLDAtMS45Ny0wLjc0LTEuOTctMi4yMnYtNC40NUgwdi0xLjAyaDEuMjl2LTEuODRsMS4yMS0wLjM5djIuMjNoMS44OXYxLjAySDIuNXY0LjI1YzAsMC41LDAuMDgsMC44NiwwLjI1LDEuMDcgICAgICBjMC4xNywwLjIyLDAuNDYsMC4zMiwwLjg2LDAuMzJjMC4zLDAsMC41Ni0wLjA4LDAuNzgtMC4yNEw0LjM5LDEwNi4wN3oiLz4mI3hhOwkJCTwvZz4mI3hhOwkJCTxnIGlkPSJzaGFwZTM0Ny0yMSIgdHJhbnNmb3JtPSJ0cmFuc2xhdGUoNTAuMzAwNSwtMTQuMzUwOSkiPiYjeGE7CQkJCTx0aXRsZSBpZD0idGl0bGUyMTU4MDQiPlNoZWV0LjM0NzwvdGl0bGU+JiN4YTsJCQkJPHBhdGggaWQ9InBhdGgyMTU4MDYiIGlua3NjYXBlOmNvbm5lY3Rvci1jdXJ2YXR1cmU9IjAiIHN0eWxlPSJmaWxsOiNGRkZGRkY7IiBkPSJNNi4yNSwxMDYuMTNINS4wNHYtMS4xOUg1LjAxICAgICAgYy0wLjUsMC45MS0xLjI3LDEuMzctMi4zMSwxLjM3Yy0xLjgsMC0yLjctMS4wNy0yLjctMy4yMXYtNC41aDEuMnY0LjMxYzAsMS41OCwwLjYxLDIuMzcsMS44MywyLjM3YzAuNTksMCwxLjA4LTAuMjEsMS40NS0wLjY1ICAgICAgYzAuMzctMC40MywwLjU2LTEsMC41Ni0xLjY5Vjk4LjZoMS4yTDYuMjUsMTA2LjEzTDYuMjUsMTA2LjEzeiIvPiYjeGE7CQkJPC9nPiYjeGE7CQkJPGcgaWQ9InNoYXBlMzQ4LTIzIiB0cmFuc2Zvcm09InRyYW5zbGF0ZSg1Ny44NTU2LC0xNC4zNTA5KSI+JiN4YTsJCQkJPHRpdGxlIGlkPSJ0aXRsZTIxNTgwOSI+U2hlZXQuMzQ4PC90aXRsZT4mI3hhOwkJCQk8cGF0aCBpZD0icGF0aDIxNTgxMSIgaW5rc2NhcGU6Y29ubmVjdG9yLWN1cnZhdHVyZT0iMCIgc3R5bGU9ImZpbGw6I0ZGRkZGRjsiIGQ9Ik02Ljk0LDEwNi4xM0g1Ljczdi0xLjI4SDUuNyAgICAgIGMtMC41NiwwLjk3LTEuNDIsMS40Ni0yLjU5LDEuNDZjLTAuOTUsMC0xLjctMC4zNC0yLjI3LTEuMDJDMC4yOCwxMDQuNiwwLDEwMy42OSwwLDEwMi41NWMwLTEuMjQsMC4zMS0yLjI1LDAuOTQtMyAgICAgIGMwLjYyLTAuNzUsMS40Ni0xLjEzLDIuNTEtMS4xM2MxLjAyLDAsMS43NywwLjQxLDIuMjUsMS4yMmgwLjAzdi00LjY1aDEuMjFWMTA2LjEzeiBNNS43MywxMDIuNzJ2LTEuMTEgICAgICBjMC0wLjYyLTAuMjEtMS4xMy0wLjYyLTEuNTRjLTAuNDEtMC40Mi0wLjkyLTAuNjItMS41MS0wLjYyYy0wLjczLDAtMS4zLDAuMjctMS43MywwLjhjLTAuNDIsMC41NC0wLjY0LDEuMjgtMC42NCwyLjIzICAgICAgYzAsMC44NiwwLjIsMS41NSwwLjYsMi4wNWMwLjQxLDAuNSwwLjk1LDAuNzUsMS42MywwLjc1YzAuNjYsMCwxLjItMC4yNCwxLjYzLTAuNzJDNS41MiwxMDQuMDgsNS43MywxMDMuNDcsNS43MywxMDIuNzIgICAgICBMNS43MywxMDIuNzJ6Ii8+JiN4YTsJCQk8L2c+JiN4YTsJCQk8ZyBpZD0ic2hhcGUzNDktMjUiIHRyYW5zZm9ybT0idHJhbnNsYXRlKDY5LjE4NTYsLTE0LjM1MDkpIj4mI3hhOwkJCQk8dGl0bGUgaWQ9InRpdGxlMjE1ODE0Ij5TaGVldC4zNDk8L3RpdGxlPiYjeGE7CQkJCTxwYXRoIGlkPSJwYXRoMjE1ODE2IiBpbmtzY2FwZTpjb25uZWN0b3ItY3VydmF0dXJlPSIwIiBzdHlsZT0iZmlsbDojRkZGRkZGOyIgZD0iTTcuNDEsMTAyLjM0YzAsMS4xOS0wLjM0LDIuMTUtMS4wMiwyLjg4ICAgICAgYy0wLjY4LDAuNzMtMS41OSwxLjA5LTIuNzMsMS4wOWMtMS4xMSwwLTItMC4zNS0yLjY3LTEuMDZjLTAuNjYtMC43MS0wLjk5LTEuNjQtMC45OS0yLjhjMC0xLjI0LDAuMzQtMi4yMywxLjAyLTIuOTUgICAgICBjMC42OC0wLjcyLDEuNjItMS4wOCwyLjgyLTEuMDhjMS4xMSwwLDEuOTksMC4zNSwyLjYyLDEuMDVDNy4wOSwxMDAuMTYsNy40MSwxMDEuMTIsNy40MSwxMDIuMzR6IE02LjE3LDEwMi4zOCAgICAgIGMwLTAuOTUtMC4yMS0xLjY3LTAuNjMtMi4xN2MtMC40MS0wLjUxLTEuMDEtMC43Ni0xLjc5LTAuNzZzLTEuMzksMC4yNi0xLjg0LDAuNzdjLTAuNDUsMC41Mi0wLjY3LDEuMjUtMC42NywyLjE5ICAgICAgYzAsMC45LDAuMjIsMS42LDAuNjcsMi4xMWMwLjQ2LDAuNTEsMS4wNywwLjc2LDEuODQsMC43NmMwLjc4LDAsMS4zOC0wLjI1LDEuOC0wLjc1QzUuOTYsMTA0LjAzLDYuMTcsMTAzLjMyLDYuMTcsMTAyLjM4eiIvPiYjeGE7CQkJPC9nPiYjeGE7CQkJPGcgaWQ9InNoYXBlMzUwLTI3IiB0cmFuc2Zvcm09InRyYW5zbGF0ZSg5Ljg5MjYyLC0xNC41MjgpIj4mI3hhOwkJCQk8dGl0bGUgaWQ9InRpdGxlMjE1ODE5Ij5TaGVldC4zNTA8L3RpdGxlPiYjeGE7CQkJCTxwYXRoIGlkPSJwYXRoMjE1ODIxIiBpbmtzY2FwZTpjb25uZWN0b3ItY3VydmF0dXJlPSIwIiBzdHlsZT0iZmlsbDojRkZGRkZGOyIgZD0iTTEuNTgsOTYuM2MwLDAuMjMtMC4wOCwwLjQxLTAuMjMsMC41NiAgICAgIEMxLjE5LDk3LjAxLDEsOTcuMDksMC43OSw5Ny4wOWMtMC4yMiwwLTAuNDEtMC4wNy0wLjU2LTAuMjJDMC4wOCw5Ni43MywwLDk2LjU0LDAsOTYuM2MwLTAuMjEsMC4wOC0wLjM5LDAuMjItMC41NSAgICAgIGMwLjE1LTAuMTUsMC4zNC0wLjIzLDAuNTctMC4yM2MwLjIyLDAsMC40MSwwLjA4LDAuNTYsMC4yM1MxLjU4LDk2LjA5LDEuNTgsOTYuM3ogTTEuMzcsMTA2LjMxaC0xLjJ2LTcuNTNoMS4yVjEwNi4zMXoiLz4mI3hhOwkJCTwvZz4mI3hhOwkJCTxnIGlkPSJzaGFwZTM1MS0yOSIgdHJhbnNmb3JtPSJ0cmFuc2xhdGUoNjYuNDM3OSwtMTQuNTI4KSI+JiN4YTsJCQkJPHRpdGxlIGlkPSJ0aXRsZTIxNTgyNCI+U2hlZXQuMzUxPC90aXRsZT4mI3hhOwkJCQk8cGF0aCBpZD0icGF0aDIxNTgyNiIgaW5rc2NhcGU6Y29ubmVjdG9yLWN1cnZhdHVyZT0iMCIgc3R5bGU9ImZpbGw6I0ZGRkZGRjsiIGQ9Ik0xLjU4LDk2LjNjMCwwLjIzLTAuMDgsMC40MS0wLjIzLDAuNTYgICAgICBDMS4xOSw5Ny4wMSwxLDk3LjA5LDAuNzksOTcuMDljLTAuMjIsMC0wLjQxLTAuMDctMC41Ni0wLjIyQzAuMDgsOTYuNzMsMCw5Ni41NCwwLDk2LjNjMC0wLjIxLDAuMDgtMC4zOSwwLjIzLTAuNTUgICAgICBjMC4xNC0wLjE1LDAuMzMtMC4yMywwLjU2LTAuMjNjMC4yMiwwLDAuNDEsMC4wOCwwLjU2LDAuMjNDMS41MSw5NS45LDEuNTgsOTYuMDksMS41OCw5Ni4zeiBNMS4zNywxMDYuMzFoLTEuMnYtNy41M2gxLjIgICAgICBWMTA2LjMxeiIvPiYjeGE7CQkJPC9nPiYjeGE7CQkJPGcgaWQ9InNoYXBlMzUyLTMxIiB0cmFuc2Zvcm09InRyYW5zbGF0ZSgxOC45ODcsLTAuMTE0MjY2KSI+JiN4YTsJCQkJPHRpdGxlIGlkPSJ0aXRsZTIxNTgyOSI+U2hlZXQuMzUyPC90aXRsZT4mI3hhOwkJCQk8cGF0aCBpZD0icGF0aDIxNTgzMSIgaW5rc2NhcGU6Y29ubmVjdG9yLWN1cnZhdHVyZT0iMCIgc3R5bGU9ImZpbGw6I0ZGRkZGRjsiIGQ9Ik04LjczLDEwMy42MWMtMC4xNiwwLjU0LTAuNjIsMS4wOC0xLjM5LDEuNDYgICAgICBjLTAuNjIsMC4zMS0xLjQ3LDAuNTQtMi4wOSwwLjU0Yy0yLjM5LDAtNC40LTIuMTYtNC40LTQuNzFjMC0xLjE1LDAuMzktMi4zMSwxLjA4LTMuMjRjMC41NC0wLjY5LDEuNTUtMS41NCwzLjA5LTEuNTQgICAgICBjMS42MiwwLDIuNzgsMC42OSwzLjQ3LDEuOTNsMC4wOCwwLjE1bDAuNzctMC4zMWwtMC4wNy0wLjIzYy0wLjg1LTEuNjItMi4yNC0yLjQ3LTQuMjUtMi40N2MtMS4zOSwwLTIuNywwLjYyLTMuNjMsMS43ICAgICAgYy0wLjg1LDEtMS4zOSwyLjQ3LTEuMzksMy44NnMwLjU0LDIuNzgsMS40NywzLjc4YzEsMS4xNiwyLjMxLDEuNzgsMy43OCwxLjc4YzEuNjIsMCwzLjcxLTAuOTMsNC4yNS0yLjYzbDAuMDgtMC4yM2wtMC44NS0wLjIzICAgICAgVjEwMy42MXoiLz4mI3hhOwkJCTwvZz4mI3hhOwkJCTxnIGlkPSJzaGFwZTM1My0zMyIgdHJhbnNmb3JtPSJ0cmFuc2xhdGUoMjkuMDQ0NiwtMC4wNTcxMzMpIj4mI3hhOwkJCQk8dGl0bGUgaWQ9InRpdGxlMjE1ODM0Ij5TaGVldC4zNTM8L3RpdGxlPiYjeGE7CQkJCTxwYXRoIGlkPSJwYXRoMjE1ODM2IiBpbmtzY2FwZTpjb25uZWN0b3ItY3VydmF0dXJlPSIwIiBzdHlsZT0iZmlsbDojRkZGRkZGOyIgZD0iTTMuODMsOTguMDhDMS43Nyw5OC4wOCwwLDk5Ljk3LDAsMTAyLjIgICAgICBjMCwxLjAyLDAuNCwyLjA1LDEuMDMsMi44YzAuNzQsMC44LDEuNzEsMS4yNSwyLjc0LDEuMzFjMi4xMS0wLjA2LDMuODMtMS44OSwzLjgzLTQuMTFDNy42NiwxMDAuMiw2LjExLDk4LjA4LDMuODMsOTguMDh6ICAgICAgIE03LjAzLDEwMi4yYzAsMi4xMS0xLjY2LDMuNDgtMy4yLDMuNDhjLTAuODYsMC0xLjY2LTAuNC0yLjIzLTEuMDhjLTAuNTctMC42My0wLjkxLTEuNTUtMC45MS0yLjQ2YzAtMi4xMSwxLjY1LTMuNTQsMy4yLTMuNTQgICAgICBDNS42LDk4LjcxLDcuMDMsMTAwLjMxLDcuMDMsMTAyLjJ6Ii8+JiN4YTsJCQk8L2c+JiN4YTsJCQk8ZyBpZD0ic2hhcGUzNTQtMzUiIHRyYW5zZm9ybT0idHJhbnNsYXRlKDM3LjY3MTcpIj4mI3hhOwkJCQk8dGl0bGUgaWQ9InRpdGxlMjE1ODM5Ij5TaGVldC4zNTQ8L3RpdGxlPiYjeGE7CQkJCTxwYXRoIGlkPSJwYXRoMjE1ODQxIiBpbmtzY2FwZTpjb25uZWN0b3ItY3VydmF0dXJlPSIwIiBzdHlsZT0iZmlsbDojRkZGRkZGOyIgZD0iTTYuNjgsOTkuNjNjLTAuODUtMS4wMy0xLjgyLTEuNi0yLjk3LTEuNiAgICAgIGMtMS4wMiwwLTIsMC40NS0yLjY4LDEuMjVDMC4zNCwxMDAuMDgsMCwxMDEuMTEsMCwxMDIuMmMwLDEuMDIsMC40LDIuMDUsMS4wOSwyLjhjMC43NCwwLjg1LDEuNzEsMS4zMSwyLjgsMS4zMSAgICAgIGMxLjAyLDAsMi4xMS0wLjU3LDIuODUtMS40M3YxLjM3aDAuNjNWOTVINi43NHY0LjYzSDYuNjh6IE02LjY4LDEwMC43N3YyLjc0YzAsMC41MS0wLjQsMS4wOS0xLjAyLDEuNTQgICAgICBjLTAuNTgsMC40LTEuMjYsMC42OS0xLjgzLDAuNjljLTEuNzcsMC0zLjI2LTEuNi0zLjI2LTMuNDljMC0wLjg1LDAuMjktMS43NywwLjg2LTIuNEMyLDk5LjE3LDIuOCw5OC43NywzLjY2LDk4Ljc3ICAgICAgQzQuOTEsOTguNjUsNi4yOCw5OS42Myw2LjY4LDEwMC43N3oiLz4mI3hhOwkJCTwvZz4mI3hhOwkJCTxnIGlkPSJzaGFwZTM1NS0zNyIgdHJhbnNmb3JtPSJ0cmFuc2xhdGUoNDYuMDEzMSkiPiYjeGE7CQkJCTx0aXRsZSBpZD0idGl0bGUyMTU4NDQiPlNoZWV0LjM1NTwvdGl0bGU+JiN4YTsJCQkJPHBhdGggaWQ9InBhdGgyMTU4NDYiIGlua3NjYXBlOmNvbm5lY3Rvci1jdXJ2YXR1cmU9IjAiIHN0eWxlPSJmaWxsOiNGRkZGRkY7IiBkPSJNNy42NiwxMDIuMmMtMC4wNi0yLjM1LTEuNzItNC4xMi0zLjk1LTQuMTIgICAgICBjLTIuMzQsMC0zLjY1LDIuMTItMy43MSw0LjEyYzAsMS4wMiwwLjQsMi4wNSwxLjA5LDIuOGMwLjc0LDAuODUsMS43MSwxLjMxLDIuOCwxLjMxYzEuMTksMCwyLjY4LTAuNjksMy4xOS0xLjk0bDAuMDYtMC4xNyAgICAgIGwtMC41Ny0wLjE4bC0wLjA2LDAuMTJjLTAuNCwwLjkxLTEuNDgsMS41NC0yLjYyLDEuNTRjLTEuNiwwLTMuMDMtMS4zNy0zLjItMy4yaDcuMDJ2LTAuMjhMNy42NiwxMDIuMnogTTAuNjksMTAxLjkxICAgICAgYzAuMDUtMC44LDAuNC0xLjYsMC44NS0yLjE3YzAuNC0wLjQ2LDEuMDktMS4wMywyLjIzLTEuMDNjMC44NiwwLDEuNjYsMC4zNCwyLjIzLDAuOTJjMC41NywwLjU3LDAuOTEsMS4zNywxLjAzLDIuMjhIMC42OXoiLz4mI3hhOwkJCTwvZz4mI3hhOwkJPC9nPiYjeGE7CTwvZz4mI3hhOzwvZz4mI3hhOzwvc3ZnPg==;" vertex="1" parent="1">
          <mxGeometry x="94.03" y="485.25" width="70" height="70" as="geometry" />
        </mxCell>
        <mxCell id="krXXUxlrRhLwoEf3vAPq-61" value="" style="edgeStyle=orthogonalEdgeStyle;rounded=0;orthogonalLoop=1;jettySize=auto;html=1;" edge="1" parent="1" source="krXXUxlrRhLwoEf3vAPq-36" target="krXXUxlrRhLwoEf3vAPq-35">
          <mxGeometry relative="1" as="geometry" />
        </mxCell>
        <mxCell id="krXXUxlrRhLwoEf3vAPq-36" value="" style="shape=image;verticalLabelPosition=bottom;labelBackgroundColor=#ffffff;verticalAlign=top;aspect=fixed;imageAspect=0;image=data:image/svg+xml,PHN2ZyB4bWxucz0iaHR0cDovL3d3dy53My5vcmcvMjAwMC9zdmciIHdpZHRoPSI1MTIiIHZpZXdCb3g9IjAgMCA1MTIgNTEyIiBoZWlnaHQ9IjUxMiI+PGcgaWQ9IkZsYXQiPjxwYXRoIGZpbGw9IiNmZGM4YTIiIGQ9Im00MDggMjU2djQ4aC05NnYtNDhhMTUuOTg5IDE1Ljk4OSAwIDAgMCAxNi0xNnYtMTZoNjR2MTZhMTUuOTc5IDE1Ljk3OSAwIDAgMCAxNiAxNnoiLz48cGF0aCBmaWxsPSIjZmRiZjkyIiBkPSJtMzkzLjI3IDI0Ni4yNGE3Ni4xMDYgNzYuMTA2IDAgMCAxIC02OC4zMSAzLjE1IDE1Ljk1OSAxNS45NTkgMCAwIDAgMy4wNC05LjM5di0xNmg2NHYxNmExNS44NTEgMTUuODUxIDAgMCAwIDEuMjcgNi4yNHoiLz48cGF0aCBmaWxsPSIjZGU1NTQwIiBkPSJtMjQzLjkzMSAyODYuMTczLTE5LjkzMSA0OS44MjdoNjR2MTIwaDE0NHYtMTIwaDU2di0zMmE0OCA0OCAwIDAgMCAtNDgtNDhoLTMybC04Ljk3NCAxMS45NjVhNTAuMDg3IDUwLjA4NyAwIDAgMSAtNDAuMDcgMjAuMDM1IDUwLjA4OCA1MC4wODggMCAwIDEgLTQ0LjgtMjcuNjg4bC0yLjE1Ni00LjMxMmgtMjMuNWE0OCA0OCAwIDAgMCAtNDQuNTY5IDMwLjE3M3oiLz48cGF0aCBmaWxsPSIjZDY0YTM0IiBkPSJtNDI0IDMwNGgxNnYzMmgtMTZ6Ii8+PHBhdGggZmlsbD0iI2Q2NGEzNCIgZD0ibTM2MCAzMjhhODguMTIyIDg4LjEyMiAwIDAgMSAtNDQtMTEuNzlsOC0xMy44NTZhNzIgNzIgMCAwIDAgNjcuMzg0IDIuNDQ2bDYuOTc1IDE0LjRhODguNTA4IDg4LjUwOCAwIDAgMSAtMzguMzU5IDguOHoiLz48cGF0aCBmaWxsPSIjZmRjOGEyIiBkPSJtMjQwIDQ1NmgtNjRsNDgtMTIwaDY0eiIvPjxwYXRoIHRyYW5zZm9ybT0ibWF0cml4KC0xIDAgMCAtMSA4NzIgMzA0KSIgZmlsbD0iI2ZkYjY4MyIgZD0ibTQ0MCAxMjhoMTZhMCAwIDAgMCAxIDAgMHY0OGEwIDAgMCAwIDEgMCAwaC0xNmEyNCAyNCAwIDAgMSAtMjQtMjQgMjQgMjQgMCAwIDEgMjQtMjR6Ii8+PHBhdGggZmlsbD0iI2ZkYjY4MyIgZD0ibTI4MCAxMjhoMTZhMCAwIDAgMCAxIDAgMHY0OGEwIDAgMCAwIDEgMCAwaC0xNmEyNCAyNCAwIDAgMSAtMjQtMjQgMjQgMjQgMCAwIDEgMjQtMjR6Ii8+PHBhdGggZmlsbD0iI2ZkYzhhMiIgZD0ibTMyOCA2NGg1NmE0OCA0OCAwIDAgMSA0OCA0OHY1MmE3NiA3NiAwIDAgMSAtNzYgNzYgNzYgNzYgMCAwIDEgLTc2LTc2di01MmE0OCA0OCAwIDAgMSA0OC00OHoiLz48cGF0aCBmaWxsPSIjN2Q0YTM4IiBkPSJtNDMyIDEyOC0xNy42NDItNS44ODFhNDQuNCA0NC40IDAgMCAxIC0zMC4zNTgtNDIuMTE5di00MGE0OCA0OCAwIDAgMSA0OCA0OHoiLz48cGF0aCBmaWxsPSIjODQ0ZTNhIiBkPSJtMzg0IDQwdjQwYTE5MC4yNjcgMTkwLjI2NyAwIDAgMSAtNTAuNDggMjMuODMgMTkwLjUgMTkwLjUgMCAwIDEgLTU1LjIxIDguMTdoLTE0LjMxdi0yNGE2NCA2NCAwIDAgMSA2NC02NGgzMC4xMWEyOC45MzkgMjguOTM5IDAgMCAxIDI1Ljg5IDE2eiIvPjxwYXRoIGZpbGw9IiM3ODQ1MzMiIGQ9Im0zNjUuNjYgNjEuNjZjLTEuMDYgMS4wNi0yNi44NCAyNi4wOC0xMDAuNzggMzQuMjlsLS44OC4wOHYtOC4wM2E2My43NDkgNjMuNzQ5IDAgMCAxIC41MS04LjExYzM0LjU2LTMuOTggNTcuMDktMTEuNzUgNjkuOTYtMTcuNjEgMTQuMDUtNi40IDE5Ljg3LTExLjkzIDE5LjkyLTExLjk5eiIvPjxwYXRoIGZpbGw9IiM3ODQ1MzMiIGQ9Im0zMjMuNTggNTUuMTZjLS43Mi4zNi0xOC4wOCA4Ljg0LTUxLjU4IDguODRsLTMuMjgtLjE2YTYzLjE1MyA2My4xNTMgMCAwIDEgOS40LTE1Ljk0YzI1LjI5LS44OSAzOC4yMS03LjAxIDM4LjM1LTcuMDh6Ii8+PHBhdGggZmlsbD0iIzg0NGUzYSIgZD0ibTMyMCAxNjBhMTYgMTYgMCAxIDEgMTYtMTYgMTYuMDE5IDE2LjAxOSAwIDAgMSAtMTYgMTZ6Ii8+PHBhdGggZmlsbD0iIzg0NGUzYSIgZD0ibTM4NCAxNjBhMTYgMTYgMCAxIDEgMTYtMTYgMTYuMDE5IDE2LjAxOSAwIDAgMSAtMTYgMTZ6Ii8+PHBhdGggZmlsbD0iI2ZjYjA3OSIgZD0ibTM1MiAxOTIuMDIxYTUxLjk1NyA1MS45NTcgMCAwIDEgLTI4LjM2My04LjQwOGw4LjcyNi0xMy40MTFhMzYuMDI2IDM2LjAyNiAwIDAgMCAzOS4yNzQgMGw4LjcyNiAxMy40MTFhNTEuOTU3IDUxLjk1NyAwIDAgMSAtMjguMzYzIDguNDA4eiIvPjxwYXRoIGZpbGw9IiM4NDRlM2EiIGQ9Im0yNCA0NTZoNDY0djMyaC00NjR6Ii8+PHJlY3QgeT0iMjAwIiB4PSIyNCIgd2lkdGg9IjI3MiIgcng9IjI0IiBoZWlnaHQ9IjE5MiIgZmlsbD0iI2Q1ZDVkMyIvPjxnIGZpbGw9IiNjNmM2YzQiPjxwYXRoIGQ9Im05NiAyMzJoMzJ2MTZoLTMyeiIvPjxwYXRoIGQ9Im0xNDQgMjMyaDMydjE2aC0zMnoiLz48cGF0aCBkPSJtMTkyIDIzMmgzMnYxNmgtMzJ6Ii8+PHBhdGggZD0ibTI0MCAyMzJoMzJ2MTZoLTMyeiIvPjxwYXRoIGQ9Im00OCAyMzJoMzJ2MTZoLTMyeiIvPjwvZz48cGF0aCBmaWxsPSIjY2VjZWNjIiBkPSJtMTYwIDM5MmgzMmwtOC00OGgtMjR6Ii8+PHBhdGggZmlsbD0iI2Q1ZDVkMyIgZD0ibTExMiA0MjRoOTZ2MzJoLTk2eiIvPjxwYXRoIGZpbGw9IiNkZmRmZGQiIGQ9Im0xNjAgNDU2aC04MGw0OC0xMTJoNTZ6Ii8+PHBhdGggZmlsbD0iI2Q1ZDVkMyIgZD0ibTI0MCA0MjRoOTZ2MzJoLTk2eiIvPjxwYXRoIGZpbGw9IiNmZGM4YTIiIGQ9Im00MzIgMzM2djY0aC0xMDRhMzIgMzIgMCAwIDAgLTMyIDMydjE2YTggOCAwIDAgMCA4IDhoMTI4YTU2IDU2IDAgMCAwIDU2LTU2di02NHoiLz48L2c+PC9zdmc+;" vertex="1" parent="1">
          <mxGeometry x="-50" y="484.75" width="70.5" height="70.5" as="geometry" />
        </mxCell>
        <mxCell id="krXXUxlrRhLwoEf3vAPq-41" value="" style="sketch=0;outlineConnect=0;fontColor=#232F3E;gradientColor=none;fillColor=#7AA116;strokeColor=none;dashed=0;verticalLabelPosition=bottom;verticalAlign=top;align=center;html=1;fontSize=12;fontStyle=0;aspect=fixed;pointerEvents=1;shape=mxgraph.aws4.bucket_with_objects;" vertex="1" parent="1">
          <mxGeometry x="280" y="146" width="75" height="78" as="geometry" />
        </mxCell>
        <mxCell id="krXXUxlrRhLwoEf3vAPq-51" value="" style="edgeStyle=orthogonalEdgeStyle;rounded=0;orthogonalLoop=1;jettySize=auto;html=1;" edge="1" parent="1" source="krXXUxlrRhLwoEf3vAPq-43" target="krXXUxlrRhLwoEf3vAPq-41">
          <mxGeometry relative="1" as="geometry" />
        </mxCell>
        <mxCell id="krXXUxlrRhLwoEf3vAPq-43" value="" style="shape=image;verticalLabelPosition=bottom;labelBackgroundColor=default;verticalAlign=top;aspect=fixed;imageAspect=0;image=data:image/png,iVBORw0KGgoAAAANSUhEUgAAAGEAAAByCAYAAABDRL+WAAAAAXNSR0IArs4c6QAAAARnQU1BAACxjwv8YQUAAAAJcEhZcwAADsMAAA7DAcdvqGQAABefSURBVHhe7V17jFzXWf/undnZd3ZjO3YcJ6kdPwJCIQ5paFShmkeb0PAnohIgpbKd8AetUsQfgUipQJQkpSJSSxEIkFIkFLWoJQ0IRJKmDxFo2pCQRgotDa0fsYPjxM/17s7uzsy9/H7fOefeM/fembmzu7Z31/uzf3PP8zvnfN953XPvzAYv3nwwHm6F0oxF4oAfsQQChOpUdxBrSAYuzI/LpoOANtCfDdMSjDNBLzlEkSxUOofLWyfVpv6PoM8Y/lCiIFRpYTQvlRDu/9p1X9yCkitxCCNE0qxEMoPIgeEhiWAZ2qW4UgZhUBy+jhQxDBBFDalC4WELuo4qCKVlIgnjSIJXdh7EJZRqFEorjKR+/ahMvu9miSsVNQwsYyR1QLBuhN5AT47CWCrQVf1/jkvze8eg20BgDxgBHf0/dx3EGKnCQ9tEcuGXdskH/uJBNVTh6F7H4hBRwYEc/8KzcurRr+g01YR+aQR2dU3DTywNKTgPXTZe7vKXn03Ty42ecWUTHdQIHAHUP9Pr7ONYChS7FHZCUVpydULXTqtXXvyWcECYXRGCfb2bRDbXJSfhu3346VYTHXy3QYi1GCPAJlxUR3OFLJadUCbN2gA2TdwmLbWhF2uauFhyVxbCCHNVo4INkltE+gaGkiprmRSWiHKOZZK7goE1IYAlcNfG0bCYEaH5oCheW7jZg1FauPPoxDhuthF3hBJHLdzMwEl7ki1e177yHezNWhU3D+xzuE/44C7Zh/uEGFuqMjdi2lffmZLwjbdF6lZxiTH9PS+g0UVhwCDCt4xIvGezBLihbAUtbhnQRSjLr0cm/yoBuh9qHsixJ56Tdx/9snZ6d5+wZCPIq8flHx74lGw415QqenBL83QyAlXaLlNnQZTcxC18fSSUnb+6T25+6NcZYtP6MkrUZ4WimxGW1q2gwH9/5K9l27tNuWomlrH5UCbmQhldcAzaOLYgINLlKDKJ+I3nGvLmU9+U88dP6qxEGviGXXtYvBF05IjM/u9xqTbgqvB00ETR4k5tPtntuQHgQSEPr3QYKBCLnhFiHRiabcns7AxCeMh1ZWDRRlD10RBclCGFh7RU8MJALOeqDZkejGVqsCXn2xjJuaGW0vhjaYQwmF1DqlwMIK8JLw15pWDRawJ1TyN87bYDsnGWIUwbyPRYRXbu/xUZHhryphMD6prG4mcVka2wIse/+C0Jj5xWA3ICmoZxtj/9sNyw5yb4uDizn6x+g1y8NQGg7oIY4iE0gMAZLK6b9t8lG++/S67JcPN9d8mW++8Gfxnxd8vm/R+S1tZxMz3RZGoIVslUy0xJa39ELNkIeXBawjZJrUPFtpOjjTsfvRmgH2lJhq4FsBX9tqSHEaC4NhaJdz2VVx4GmocVncAojcYH7hGxmNNo9OPDrg0pCpqEavBermHJWiXJLgedWkAXRLhrGSzDSPAVR0UaQ/A2y8RlaDTuEVVAmK4xhdVxTbNEFj+3wg+4xEwePtKNiwODymIZjFCApEfb2mXJmid+AttTffhtdkr8147UCBTNWK4WbsVw4/Ry0Fc8W+Va1g+W2QhOWb2Qr6ZudTWrMYRx5RHUwQvgWYy1c7iCYSeex86jIyMQuy9lUTzppSmSbxmcRcVwlXmwTPMz6LFFzUqkWoxq3Bb1+b0HsUVNw09sGZB9zz0uo6PDhUpMKxnhXyjf/eijUv32YbhCqeBubxr3EjuwRd12841IYwtRQBoWg385+Icye/wdGQyqiDHl8slhMTpFMB/7sUNRTRmWKb8wHUYkknBt+4VHPi6jP7unMNkStqhugDkWVcJVMq2wbozUVYCkLWnRnJ3c3XYejLBlY8XfeLIu247Nybajs3LD0To4K9dnuO3IjMfpDF28ny6bxoX7abNy8xydcYZ1k1U5pJpYJlBl7BmJTRwtXPX0YTfC2Ytr6OG4RysFyndG1qsnOw+mYhN9OtBdtcymYT6CV8Z3P0Jheyr80EoxpD+wxCWB0zdvtsyZEPWNSU1f70Ck1Tjmu+R5Ad0kw7nFjLmbQmLzDo5hu2LbWxViGhIs4i2U0YJAPqNoZNhivNLIXTxRRkIns518my4GmyEyhN2N1QmeEdh6aocacNdyYErDWEYWwB9PifxoWuTojDLAFBEeqYNzUjkyD9alcmhGaodnZGIGix4yc25sL78AqO1bV2NenYjk6FUtsClHxltyeMIxsmxa+mFFzOYropNVxJYcShhLfRCGYPX7hF2Y+bYde7J5+WvfX2JhhrwAFu4EtzA/d9sB2YAdC59Tc7GZr8ZybpjxkZ498R6Mkz4vkKifzBigFyOFTNZDGeGJncVUsjBvRyqOkTRObfPWGexC4NDG2vp5SRS+nw0pBMPbEmauZeDy84p8W8dFRjkaWHOGpvK7LczWCNiZIBePDxIjIEG342RnhOf3GiNoRSDYqMX0ZHcAqKFMDzidxDEXAeYxOdwO5/xQJDu/SiPssA3JwiZU5GMN/DRZZPK4pG3BhYFd4ecoyl1yd8SsWfbGPKZol5IK1mMIuq3fhfGIgm/4qVsZgPBD+y6uBTfptsZ+I9qRlLAIZsBC2gry07rpsSBfB/SX2sAzAmtCr6XtoZ3ATs7Z6o7f/oicHeXCxQWxJfN8qRhTEjkHhRpGoIlbQL4iMt35Wixjt+6UrbtvQgmdmoPEWkdeXZoslxMXQ2Y7MtNR+TUhATrL4b97Rs69jhuuBiRRjo1y0xFlZaF3yApGcvbEpLVxXG68/x4Zu/Zq+LhimLhiML+T0Q96tamT3O75/Bx0Z2teYk3gHTMXZm9NgIRSRmCJnN471b0fsNbclnfS+yrGEu6YS8ApbgCslSDT+czGrUED9IJnBLbesmj+WC54xSjXkRkJqvx1DV1qLH06WseSsW6EFYB1I6wArBthBWAZjOBuEPq5SXBpu+ftHLO20MMIvpKKVWJOiswpSwtu3pToN9ct6XdkPN8wMle6zD8ng8Cdo/qYxoTny1xr6NMIeegJaQOf785L5e05CU/MSXBi3nJBwv+zhLuibFiaMDJAvOAqfICPnTFLYsXcizNrHYt+0J/gxLS8+KdPyOH/eFXCVqyP+fSXAACjQqoyNaE5D7K+IMLtu3HyXaXKtZPy4Ud+R4b23sAQy4IyVyE43ssdWyRKdwroje9/9ovSeOY12XM6lF3nqrJjakC2W+44TzKsKjc5wm9Y8dxV2QVu+eE5+fonPiON6Xmt9JUCzwhO8ejKNEZuFBQASU5+4xUZbcDGsCyfroUcBbjyDFSfF2gn5pjQEMhtgXS3kIcrCYnZP4qlhny1UzNy9t3TiOez57UDtoWkPtBMqxcDawSjiDYwpUb7THNiFCkb8/MSt/SRfUItCJHm8aah6INwQ051Lcx/EWhemYTCQ/P65ADcjUYDJdFwaXnLjbS2KS8XrBEIVsP1TBC9tQzYg80rjAaztVjeur4mR7YEcnizKA+R1wQJj2wO5c3NVTl0bU2mhyqqbJbmnj9cKlxKIyTloIlsq1/ekp8xf+3W/bKpno6SMxsH5INfekxkdET9xWBmpg/lex9/XKJXDqNsI5Bv4O3+6ifluj18A89h+Y1jq98Gr0cuO7jlZmc79oV0YeaMUfA8gY211OmoLFzaWBaqUCQMIZs6seaxKvO4OAMQuhzRkdXQKkKnqjstZTVrjdCPwrPwRZuZ3HzxA/sbJed9505pk4McnOWmPgVayEbyYV52WKunkwYyYNFsvM8ETk4ZWZm0ZbJk4RmBXAz8fK45rip0+7I9Ny5mh4BdUj9VR1Iqn0ZwT1X1wxfRh7gkr8+yyKT1s/cjpq0DLB2ektvAMGcg507RKVcObBkSMrf/hiiNmSPDy7Aor8+iPI6Id69McvZ2ioeze3uQ0I/3tEEpVlF67Somg2x6KycBZZPWmwMjsEDZyukSUQCnGKbhTwSZnwmCx9Eh6+8Im8ilL8pXFOaBdeZLEvzSpNapQ1ptF1jURuyODmB3ZH50MH9sweTFSHdHB7E7ckUE+v2EDzzzaRkbG2MyC8S5QlWkkc3e9NK9fyy1bx+Gi+UHMlMzu6Ot3B0lxVsHMjRf+IFU5zERcS5y4SobH65luqkAEwt1AuOQTjudBz+fi9O1qwO0ZyD97TtENqPdtlo+sBKihR1fedlvz464oPK9o919GuFA2xb1bRrhXz8DI4yq36BADoKoq+/c+6hUX6QReLctxghPwwi7C4yAe8JvfOT3ZeHw2/rrlSyfMUkyVT7gd7MckMaP1izZ9DZNYZwHWx4/aYf3f/53ZXjfTyHA5THxRDcj8LzBZupSWFe4vIb6D8Zj/XrRFQ2nGiCJg9+rfwpEjC8EMjkncnUdxJXuSbgnMRon5yzp1rAieum6pe1DzlVzIeqDu30uDlpvtkBbUQp2rC0VrlBQFWlOiowxig3Cwa0zCtLpG93qRpxlJ3BwuhHKXPxXXIZfvs9ucY5OhutQ3cn3arU24eLUyQMbU+IygT+3M34Bq8w8hHdhZRZEL67xtXhoncO5J5BmmjeDtUBmh0OZHcIaAk4POyJe6fwhWMmQYX6c82fpyyGzcjyOhHIBjGuL+5KItyYYy/e/JvDYgulMWioluuUGiaKWhLmekcqrwk3FV79/UkamGuatbPi5JuzpdGwBA5997mUZOlOXAawJnMooo+33XEuDMq1cHZf9Is3PevM5ytAv3iJyHTcklOfLZ0iphXlxu6Nn9+6XzbMYihDKfxqHS1S4m0CEG3WMR5maB1cqk6/Jz1cj2cWFudPZEctdqXDVZB29KhP8Whe/oXrsiWfl1GNfaTPCovqQjwHqUhVoegQFax3wUUjGaTwNkILGYG/ilwiRrLOuEwErkA6+uwRoC1z6zAVwkPCl7Ymfu0XquH3llwXjCgL1eQFZKSBGW+JmGvpB5ON2fB6j49SIyNbNW1gCDNHRFGsKtADQvxEc3vvwfdJ8/y45siGWo+MteXMM5LWQEdg0HKMbYUw/1pRjV7Xk7feMyp1/8oAE40NqgisF9nlCpwf9JYxDXc2A57B5bnFu0tASyMqGfxJbkgnn9QUtvpOsFFzUNUH1ww3B9VAgerJsL0vMO21E/kkrj9AF3HFtY+lGuBhY+3pvw8o0whWGdSOsAPQwAm+4fK6EHQvrsNLqtDSswpGw+pWexfp0tAKwDEZgz+y3d7r0Lm9B/itoh7SMRihQZCH89D7tp/WmoWsfPYzAaJ/57hnzLpk/MsWbq05aY7i/lvK0T3+FCm4+2eHJH9wq3abhl0eMJyu0d51WG5Z+bAE91V/4bznz+o+T37YwyiFMfj32pjJhKN6upw/NUQaJMD2T37ZBJu5+r1R5fIE0zG2Ox42c1YxuxxZLNsLUl1+UFx77G5mYD/Xn0IzCbD4ejQJODhWaMwIrgX986FEfEJncd4vc8ecPSBN+PuEwB95W3irGxTs7guFe/PyTcm29KiOzkYzDEPzjFSPgcIMMUjZ5FVxjc23wCiJ8SMMRP9OUU//2mpx/6xTUTuNcGehhBM4jPj3Ay2kmnKqLNPjuqQ230NflA44mElOLPtHBCCBD9Ht9U8pJNb19MKzKKAwyO8M/YnHloE8jGJURztWCJTiVmDcPYA9MY2eGWmDTsmGug3S35DTcp6371HAs8/ps3BiB31QYsFUya8GVgR5rQqp0A6MsgqOAlnhm737ZlDxjFpmeqMm+zz0kMjLkkgJwJG7CrglBVX7wB38l9dffhAE5/cAoA7G85x8fts+YGcaMbZlXJS7u84QMpqH7mb0bRW7fLHKb5c9cg6tPG37rRpm6CpkwNV1JT9Ky8IwAJeiuxc7b6u4ffC6cfOkjkWP9CRnGOKYBMer444RrAa6F/cAawSnKg3oZ7bPMtOCmD9LPlw13+x9sRPXNL7IEUFXe3y2AWMO15knLLzOzQWVBbVgwmzOG7aWLRhmFujT2WqY4pkFy5nDmJbghuNxkpVwTrLc0PCP4WfsV0y8ysksW5RrLi/uSiBlTl5+E6xjOXxaeEQhPrLb4EqJEcTo4T1yQ4K0LIkfPi7zZjVMg04G8diXTFrFIboasxxF7xc1mqRGdgd2i9v+7qJ22qCe21OTnn31cxsZHNF1ncAkP5KV7Py3V7xzSX4Hn+6ldt6ho41O/8aDUj78jVawjrr3mvMqHsyiu2hCXIJewCyiD6Xvnoe64rN3z2d+T0TtvRlZXfooSW9TFDKJiUEoiqWsbaDi9aBKXx/xED27/wBwQdB067k1nRHaeCWTX6UB2g7zu4m9rnK5Y0i+GSGv8XlhPUpaT6fIW0ZVp/KPzbEzXRheic1dfJFg8T0R51Zd8rduHxhmnGqLajKWmO6TeYCrtMsjHEZB08ja4VI7dkE1LJqWAvcGq6x+xQMsKuk5PsCQLFmgL19PPchXIAdk4GpmbnUIJNyvnSD+Vxy1mjGHJIw8OzTLg4UaTQjhV8m91hhWJKmAYgu6a/eMV+T8+kbLXH7ooyuNo8saoUwPlsnZhwVTUC1gTlvbFwWdvO4A1gYZDevinJqqy96GPyuBQTSpaMQAVTud2EvNjFOkfOv3hnz0l4Rsn9TsG7FFz1Ui2/5N7NT6/Jjy9/2Gpv3Fcqmg9RwLzmO8nwMF1CWWxIpovqX+v/unSORhZZpj1zst5nfjw5x7EmrAHLvrbZfZ4nrC0Lw5+fe9B2TRjvjLE6i4g34UhHumhUCoEMAu8k8UrlcQ0gYxjUR9GbbRHodE0wp6nPynX8K9LqRKY3ualdwYf/KuR/vTlORMwbYI2TwGKBDiUyYs0vIzgY1ADc+i+MLOh2thehXUBymbHIQehHBrlGnDTjBQwAmP9y7X012A5YwAKMnUw7gIwfAwfk+AGuB2vLqAfv4HpuzGb3mdRep8mTXw1aA3QryZNV12CAeYmB/XbNRxF7N3cOBqDcGQZhaqJ1e3iGGbjbRyhI6GGtWIIt2JdRuFKxmI0iYWAmrC26APUEWeZD/3Rx+SdiUBmqi2ZwxahXmlJvRaAIcJi5fRApPHGjxmljcwrcgGGPD0cy9Z77pTrbtxGU9qS1j68NcH0xLJrgkOEBXb61R9J/dVDMrQQY5EMpGqNyj0/YRZJdeYQR9jhIH0DBhzYsVHG9/20xMOcPXWsIAUz9q7H5Ua2y2RrXHJh7m931AbWoGgTka1ZJ/jF0H4rX+d94+I/1KHSeJqWJaaZUvTzrEED9AJtgcsV2PIVBDsS1o1wObE809ElBRcan6sfa8AIq98Qq9AIaw+hHsHoGxGgHl+49WF9nbhUSEbCusovEfToJhL+mIpDaN4RMtBxwA9w5R7dsN/4XB3dhy+s84SoAeXq8TsVbZUdvLR7P+yAO2Yk4gtYzVuvl/d94jeROBL+Rdhi4C7PHkk4OFUYsaZAo6QUWq51p3A5Uvin1AYMaA/My8rL0WMx606RkYUE7bUk8rLydSJ6t0/1zGu1IgtRU04+/7KcfvKbkGeeh+gvSb605wBGB26oEcD0/NGnCzW4QnMmSlg5CXimY851UrjCjPJtpdWTVkt9OWH5845cgzNyiLwseDLC6XP1SVCqTprTuC20lr4sjc4YgczI8rOwXSMNEf5uH3XL87owhuu7MII0zTlR+vwLnyrMqDrXEIAnTQbmagr3jqfpVWkpVLbLlgABSTIT6YzfjowsP5tDItxc+cnu0o687PyA94WbyOI6ZY2A0jKyfD914zoYryw3lJYEL9/+sbh1vm4MoBlMP3coMoAGOeGaiYWbCrn0XtkJGMXkSRwDMnKIMkda5WS1t6UT3CygaJPDDzNS83XSGhinhTFC+yG8n8sPp5sLNL+nEbz8qb+NLzz5LRlpQghieLpnxoMBE+d7SlopZ1k2lgZIegMf8mTyabUR5gzF5mmY+lK4NAXFJkgUZ9OR+ldM2mBawgephDbYOBNo+QjrXScz9jU7InnNy7IpbLzqw3hTeH7+RtfZn9iANLNR/Nrf/7O889zL+jUmI6AtmwrMo6DBTKgfjnloqJZhyJLyjUlzO+UUpSFUjpWXNYKaABFuB8jf5WO+RZWHCD4tJDQKzrwcN2qMHF61Rrl0rEssIz95g9zxW78m/w9BWx6jW9/JeAAAAABJRU5ErkJggg==;" vertex="1" parent="1">
          <mxGeometry x="95.96000000000001" y="144" width="68.07" height="80" as="geometry" />
        </mxCell>
        <mxCell id="krXXUxlrRhLwoEf3vAPq-48" style="edgeStyle=orthogonalEdgeStyle;rounded=0;orthogonalLoop=1;jettySize=auto;html=1;entryX=0.405;entryY=0.77;entryDx=0;entryDy=0;entryPerimeter=0;" edge="1" parent="1" source="krXXUxlrRhLwoEf3vAPq-35" target="SZY12_XKgGBlkoAp8IEY-8">
          <mxGeometry relative="1" as="geometry" />
        </mxCell>
        <mxCell id="krXXUxlrRhLwoEf3vAPq-53" value="s3 Bucket" style="text;html=1;align=center;verticalAlign=middle;resizable=0;points=[];autosize=1;strokeColor=none;fillColor=none;fontSize=15;" vertex="1" parent="1">
          <mxGeometry x="270" y="228" width="90" height="30" as="geometry" />
        </mxCell>
        <mxCell id="krXXUxlrRhLwoEf3vAPq-54" value="terraform state file" style="text;html=1;align=center;verticalAlign=middle;resizable=0;points=[];autosize=1;strokeColor=none;fillColor=none;fontSize=15;" vertex="1" parent="1">
          <mxGeometry x="67" y="224" width="140" height="30" as="geometry" />
        </mxCell>
        <mxCell id="krXXUxlrRhLwoEf3vAPq-57" value="End user" style="text;html=1;align=center;verticalAlign=middle;resizable=0;points=[];autosize=1;strokeColor=none;fillColor=none;fontSize=14;" vertex="1" parent="1">
          <mxGeometry x="-59.5" y="550" width="80" height="30" as="geometry" />
        </mxCell>
        <mxCell id="krXXUxlrRhLwoEf3vAPq-60" value="" style="shape=image;verticalLabelPosition=bottom;labelBackgroundColor=#ffffff;verticalAlign=top;aspect=fixed;imageAspect=0;image=data:image/svg+xml,PHN2ZyB4bWxuczpjYz0iaHR0cDovL2NyZWF0aXZlY29tbW9ucy5vcmcvbnMjIiB4bWxuczpkYz0iaHR0cDovL3B1cmwub3JnL2RjL2VsZW1lbnRzLzEuMS8iIHhtbG5zOmlua3NjYXBlPSJodHRwOi8vd3d3Lmlua3NjYXBlLm9yZy9uYW1lc3BhY2VzL2lua3NjYXBlIiB4bWxuczpyZGY9Imh0dHA6Ly93d3cudzMub3JnLzE5OTkvMDIvMjItcmRmLXN5bnRheC1ucyMiIHhtbG5zOnNvZGlwb2RpPSJodHRwOi8vc29kaXBvZGkuc291cmNlZm9yZ2UubmV0L0RURC9zb2RpcG9kaS0wLmR0ZCIgeG1sbnM6c3ZnPSJodHRwOi8vd3d3LnczLm9yZy8yMDAwL3N2ZyIgeG1sbnM9Imh0dHA6Ly93d3cudzMub3JnLzIwMDAvc3ZnIiB4bWxuczp4bGluaz0iaHR0cDovL3d3dy53My5vcmcvMTk5OS94bGluayIgdmVyc2lvbj0iMS4xIiBpZD0ic3ZnMTc1NjcxIiBpbmtzY2FwZTp2ZXJzaW9uPSIwLjkyLjMgKDI0MDU1NDYsIDIwMTgtMDMtMTEpIiBzb2RpcG9kaTpkb2NuYW1lPSJnaXRodWIuc3ZnIiB4PSIwcHgiIHk9IjBweCIgdmlld0JveD0iMCAwIDQ1LjI3IDQ1LjI5IiBzdHlsZT0iZW5hYmxlLWJhY2tncm91bmQ6bmV3IDAgMCA0NS4yNyA0NS4yOTsiIHhtbDpzcGFjZT0icHJlc2VydmUiPiYjeGE7PHNvZGlwb2RpOm5hbWVkdmlldyBib3JkZXJjb2xvcj0iIzY2NjY2NiIgYm9yZGVyb3BhY2l0eT0iMSIgZml0LW1hcmdpbi1ib3R0b209IjAiIGZpdC1tYXJnaW4tbGVmdD0iMCIgZml0LW1hcmdpbi1yaWdodD0iMCIgZml0LW1hcmdpbi10b3A9IjAiIGdyaWR0b2xlcmFuY2U9IjEwIiBndWlkZXRvbGVyYW5jZT0iMTAiIGlkPSJuYW1lZHZpZXcxNzU2NzMiIGlua3NjYXBlOmN1cnJlbnQtbGF5ZXI9InN2ZzE3NTY3MSIgaW5rc2NhcGU6Y3g9IjMwLjE3ODAyNSIgaW5rc2NhcGU6Y3k9IjMwLjE5NDMxOSIgaW5rc2NhcGU6cGFnZW9wYWNpdHk9IjAiIGlua3NjYXBlOnBhZ2VzaGFkb3c9IjIiIGlua3NjYXBlOndpbmRvdy1oZWlnaHQ9IjEwMTciIGlua3NjYXBlOndpbmRvdy1tYXhpbWl6ZWQ9IjEiIGlua3NjYXBlOndpbmRvdy13aWR0aD0iMTkyMCIgaW5rc2NhcGU6d2luZG93LXg9Ii04IiBpbmtzY2FwZTp3aW5kb3cteT0iLTgiIGlua3NjYXBlOnpvb209IjEwLjA5NTE1OCIgb2JqZWN0dG9sZXJhbmNlPSIxMCIgcGFnZWNvbG9yPSIjZmZmZmZmIiBzaG93Z3JpZD0iZmFsc2UiPiYjeGE7CTwvc29kaXBvZGk6bmFtZWR2aWV3PiYjeGE7PGcgaWQ9ImcxNzU2NjkiIHRyYW5zZm9ybT0idHJhbnNsYXRlKC05LjU2MjU0MTcsLTkuNTYxMzEpIj4mI3hhOwk8dGl0bGUgaWQ9InRpdGxlMTc1NjU5Ij5QYWdlLTE8L3RpdGxlPiYjeGE7CTxnIGlkPSJncm91cDIyNTAtMSIgdHJhbnNmb3JtPSJ0cmFuc2xhdGUoOS41NjMwOCwtOS4zNzg2OSkiPiYjeGE7CQk8dGl0bGUgaWQ9InRpdGxlMTc1NjYxIj5HaXRIdWI8L3RpdGxlPiYjeGE7CQk8ZyBpZD0ic2hhcGUyMjUxLTIiPiYjeGE7CQkJPHRpdGxlIGlkPSJ0aXRsZTE3NTY2MyI+U2hlZXQuMjI1MTwvdGl0bGU+JiN4YTsJCQk8cGF0aCBpZD0icGF0aDE3NTY2NSIgaW5rc2NhcGU6Y29ubmVjdG9yLWN1cnZhdHVyZT0iMCIgZD0iTTIyLjYzLDE4Ljk0QzEwLjE0LDE4Ljk0LDAsMjkuMzMsMCw0Mi4xNSAgICAgYy0wLjA3LDkuODksNi4xNSwxOC43MywxNS40OCwyMi4wMWMxLjEzLDAuMjIsMS41NC0wLjUsMS41NC0xLjExYzAtMC42MiwwLTIuMDEsMC0zLjk1Yy02LjI5LDEuNDEtNy42Mi0zLjExLTcuNjItMy4xMSAgICAgYy0xLjAzLTIuNjgtMi41MS0zLjQtMi41MS0zLjRjLTIuMDYtMS40MSwwLjE1LTEuNDEsMC4xNS0xLjQxYzIuMjcsMC4xNiwzLjQ3LDIuMzksMy40NywyLjM5YzIuMDIsMy41NCw1LjMsMi41Miw2LjU4LDEuOTMgICAgIGMwLjEtMS4xNywwLjYtMi4yNiwxLjQyLTMuMUMxMy40OCw1MS44MSw4LjIsNDkuODIsOC4yLDQwLjkyYy0wLjA0LTIuMjksMC43OS00LjUxLDIuMzItNi4yMmMtMC42OS0yLTAuNjEtNC4xOSwwLjIyLTYuMTQgICAgIGMwLDAsMS45MS0wLjYyLDYuMjMsMi40YzMuNy0xLjA0LDcuNjItMS4wNCwxMS4zMiwwYzQuMzItMyw2LjIyLTIuMzcsNi4yMi0yLjM3YzAuODMsMS45NSwwLjkxLDQuMTQsMC4yMiw2LjE0ICAgICBjMS41MywxLjcsMi4zNywzLjkzLDIuMzMsNi4yMmMwLDguOTEtNS4yOSwxMC44OC0xMC4zMywxMS40NWMwLjgxLDAuNzEsMS41MywyLjEyLDEuNTMsNC4zYzAsMy4xMSwwLDUuNjEsMCw2LjM3ICAgICBjMCwwLjYyLDAuNDEsMS4zNCwxLjU2LDEuMTJjOS4zMy0zLjMsMTUuNTMtMTIuMTUsMTUuNDUtMjIuMDRDNDUuMjcsMjkuMzMsMzUuMTMsMTguOTQsMjIuNjMsMTguOTR6Ii8+JiN4YTsJCTwvZz4mI3hhOwk8L2c+JiN4YTs8L2c+JiN4YTs8L3N2Zz4=;" vertex="1" parent="1">
          <mxGeometry x="360" y="485.25" width="70" height="70" as="geometry" />
        </mxCell>
        <mxCell id="krXXUxlrRhLwoEf3vAPq-63" style="edgeStyle=orthogonalEdgeStyle;rounded=0;orthogonalLoop=1;jettySize=auto;html=1;exitX=0.5;exitY=1;exitDx=0;exitDy=0;" edge="1" parent="1" source="krXXUxlrRhLwoEf3vAPq-60" target="krXXUxlrRhLwoEf3vAPq-60">
          <mxGeometry relative="1" as="geometry" />
        </mxCell>
        <mxCell id="krXXUxlrRhLwoEf3vAPq-65" value="GitHub" style="text;html=1;align=center;verticalAlign=middle;resizable=0;points=[];autosize=1;strokeColor=none;fillColor=none;fontSize=14;" vertex="1" parent="1">
          <mxGeometry x="370" y="555.25" width="70" height="30" as="geometry" />
        </mxCell>
        <mxCell id="krXXUxlrRhLwoEf3vAPq-66" value="code commit &amp;amp;push" style="text;html=1;align=center;verticalAlign=middle;resizable=0;points=[];autosize=1;strokeColor=none;fillColor=none;fontSize=15;" vertex="1" parent="1">
          <mxGeometry x="159" y="520" width="160" height="30" as="geometry" />
        </mxCell>
      </root>
    </mxGraphModel>
  </diagram>
</mxfile>
